<svg width="950" height="11" viewBox="0 0 950 11" fill="none" xmlns="http://www.w3.org/2000/svg">
<g id="string-decor">
<g id="lines">
<path id="Lines1" d="M103.157 1.41036H158.969M104.594 6.74368H158.063M103.657 9.41036H158.282M104.594 4.07705H158.313" stroke="#D8F0FF" stroke-linecap="round"/>
<path id="Lines2" d="M261.157 1.41036H316.969M262.594 6.74368H316.063M261.657 9.41036H316.282M262.594 4.07705H316.313" stroke="#D8F0FF" stroke-linecap="round"/>
<path id="Lines3" d="M735.157 1.41036H790.969M736.594 6.74368H790.063M735.657 9.41036H790.282M736.594 4.07705H790.313" stroke="#D8F0FF" stroke-linecap="round"/>
<path id="Lines4" d="M893.157 1.41036H948.969M894.594 6.74368H948.063M893.657 9.41036H948.282M894.594 4.07705H948.313" stroke="#D8F0FF" stroke-linecap="round"/>
<path id="Lines5" d="M419.157 1.41036H474.969M420.594 6.74368H474.063M419.657 9.41036H474.282M420.594 4.07705H474.313" stroke="#D8F0FF" stroke-linecap="round"/>
<path id="Lines6" d="M577.157 1.41036H632.969M578.594 6.74368H632.063M577.657 9.41036H632.282M578.594 4.07705H632.313" stroke="#D8F0FF" stroke-linecap="round"/>
</g>
<g id="text">
<g id="Text1">
<path d="M1.69928 5.60036H2.83028C4.00894 5.60036 4.59828 5.26236 4.59828 4.58636V2.51936C4.59828 2.19003 4.44661 1.93869 4.14328 1.76536C3.83994 1.59203 3.39794 1.50536 2.81728 1.50536C1.63861 1.50536 1.04928 1.84336 1.04928 2.51936V10.1764C1.04928 10.3757 0.875944 10.4754 0.529277 10.4754C0.182611 10.4754 0.00927734 10.3757 0.00927734 10.1764V2.64936C0.00927734 1.98203 0.247611 1.47503 0.724277 1.12836C1.20961 0.773026 1.90728 0.59536 2.81728 0.59536C3.72728 0.59536 4.42494 0.773026 4.91028 1.12836C5.39561 1.47503 5.63828 1.98203 5.63828 2.64936V4.45636C5.63828 4.85503 5.54728 5.18003 5.36528 5.43136C5.19194 5.67403 4.90161 5.85169 4.49428 5.96436C4.61561 6.05103 4.71094 6.16803 4.78028 6.31536C4.84961 6.46269 4.91461 6.64036 4.97528 6.84836L5.89828 10.2154C5.91561 10.3887 5.75094 10.4754 5.40428 10.4754C5.10961 10.4754 4.94061 10.3757 4.89728 10.1764L4.07828 7.21236C4.02628 7.00436 3.96128 6.85269 3.88328 6.75736C3.81394 6.65336 3.70128 6.58836 3.54528 6.56236C3.38928 6.52769 3.15528 6.51036 2.84328 6.51036H1.69928C1.52594 6.51036 1.43928 6.35869 1.43928 6.05536C1.43928 5.75203 1.52594 5.60036 1.69928 5.60036Z" fill="#D8F0FF"/>
<path d="M8.11549 5.86036H9.24649C10.4252 5.86036 11.0145 5.52236 11.0145 4.84636V2.51936C11.0145 2.19003 10.8628 1.93869 10.5595 1.76536C10.2562 1.59203 9.81415 1.50536 9.23349 1.50536C8.05482 1.50536 7.46549 1.84336 7.46549 2.51936V10.1764C7.46549 10.3757 7.29216 10.4754 6.94549 10.4754C6.59882 10.4754 6.42549 10.3757 6.42549 10.1764V2.64936C6.42549 1.98203 6.66382 1.47503 7.14049 1.12836C7.62582 0.773026 8.32349 0.59536 9.23349 0.59536C10.1435 0.59536 10.8412 0.773026 11.3265 1.12836C11.8118 1.47503 12.0545 1.98203 12.0545 2.64936V4.71636C12.0545 5.37503 11.8118 5.88203 11.3265 6.23736C10.8498 6.59269 10.1565 6.77036 9.24649 6.77036H8.11549C7.94215 6.77036 7.85549 6.61869 7.85549 6.31536C7.85549 6.01203 7.94215 5.86036 8.11549 5.86036Z" fill="#D8F0FF"/>
<path d="M13.0981 10.4754C12.7515 10.4754 12.5781 10.3757 12.5781 10.1764V1.02436C12.5781 0.825026 12.7515 0.72536 13.0981 0.72536C13.4448 0.72536 13.6181 0.825026 13.6181 1.02436V10.1764C13.6181 10.3757 13.4448 10.4754 13.0981 10.4754Z" fill="#D8F0FF"/>
<path d="M18.0437 10.4754C17.6971 10.4754 17.5237 10.3757 17.5237 10.1764V2.64936C17.5237 1.98203 17.7881 1.47503 18.3167 1.12836C18.8454 0.773026 19.6081 0.59536 20.6047 0.59536C21.5667 0.59536 22.2947 0.768693 22.7887 1.11536C23.2914 1.46203 23.5427 1.97336 23.5427 2.64936V10.1764C23.5427 10.3757 23.3694 10.4754 23.0227 10.4754C22.6761 10.4754 22.5027 10.3757 22.5027 10.1764V6.65336H18.5637V10.1764C18.5637 10.3757 18.3904 10.4754 18.0437 10.4754ZM18.5637 2.51936V5.74336H22.5027V2.51936C22.5027 2.19003 22.3337 1.93869 21.9957 1.76536C21.6664 1.59203 21.1811 1.50536 20.5397 1.50536C19.8984 1.50536 19.4087 1.59203 19.0707 1.76536C18.7327 1.93869 18.5637 2.19003 18.5637 2.51936Z" fill="#D8F0FF"/>
<path d="M26.1378 5.60036H27.2688C28.4474 5.60036 29.0368 5.26236 29.0368 4.58636V2.51936C29.0368 2.19003 28.8851 1.93869 28.5818 1.76536C28.2784 1.59203 27.8364 1.50536 27.2558 1.50536C26.0771 1.50536 25.4878 1.84336 25.4878 2.51936V10.1764C25.4878 10.3757 25.3144 10.4754 24.9678 10.4754C24.6211 10.4754 24.4478 10.3757 24.4478 10.1764V2.64936C24.4478 1.98203 24.6861 1.47503 25.1628 1.12836C25.6481 0.773026 26.3458 0.59536 27.2558 0.59536C28.1658 0.59536 28.8634 0.773026 29.3488 1.12836C29.8341 1.47503 30.0768 1.98203 30.0768 2.64936V4.45636C30.0768 4.85503 29.9858 5.18003 29.8038 5.43136C29.6304 5.67403 29.3401 5.85169 28.9328 5.96436C29.0541 6.05103 29.1494 6.16803 29.2188 6.31536C29.2881 6.46269 29.3531 6.64036 29.4138 6.84836L30.3368 10.2154C30.3541 10.3887 30.1894 10.4754 29.8428 10.4754C29.5481 10.4754 29.3791 10.3757 29.3358 10.1764L28.5168 7.21236C28.4648 7.00436 28.3998 6.85269 28.3218 6.75736C28.2524 6.65336 28.1398 6.58836 27.9838 6.56236C27.8278 6.52769 27.5938 6.51036 27.2818 6.51036H26.1378C25.9644 6.51036 25.8778 6.35869 25.8778 6.05536C25.8778 5.75203 25.9644 5.60036 26.1378 5.60036Z" fill="#D8F0FF"/>
<path d="M31.774 2.51936V8.68136C31.774 9.01069 31.9386 9.26203 32.268 9.43536C32.606 9.60869 33.0913 9.69536 33.724 9.69536C34.9633 9.69536 35.583 9.35736 35.583 8.68136V7.74536C35.583 7.54603 35.7563 7.44636 36.103 7.44636C36.4496 7.44636 36.623 7.54603 36.623 7.74536V8.55136C36.623 9.21869 36.376 9.73003 35.882 10.0854C35.3966 10.432 34.6773 10.6054 33.724 10.6054C32.7533 10.6054 32.0123 10.4277 31.501 10.0724C30.9896 9.71703 30.734 9.21003 30.734 8.55136V2.64936C30.734 1.98203 30.9896 1.47503 31.501 1.12836C32.0123 0.773026 32.7533 0.59536 33.724 0.59536C34.6773 0.59536 35.3966 0.773026 35.882 1.12836C36.376 1.47503 36.623 1.98203 36.623 2.64936V3.45536C36.623 3.65469 36.4496 3.75436 36.103 3.75436C35.7563 3.75436 35.583 3.65469 35.583 3.45536V2.51936C35.583 1.84336 34.9633 1.50536 33.724 1.50536C33.0913 1.50536 32.606 1.59203 32.268 1.76536C31.9386 1.93869 31.774 2.19003 31.774 2.51936Z" fill="#D8F0FF"/>
<path d="M37.6605 10.4754C37.3139 10.4754 37.1405 10.3757 37.1405 10.1764V2.64936C37.1405 1.98203 37.4049 1.47503 37.9335 1.12836C38.4622 0.773026 39.2249 0.59536 40.2215 0.59536C41.1835 0.59536 41.9115 0.768693 42.4055 1.11536C42.9082 1.46203 43.1595 1.97336 43.1595 2.64936V10.1764C43.1595 10.3757 42.9862 10.4754 42.6395 10.4754C42.2929 10.4754 42.1195 10.3757 42.1195 10.1764V6.65336H38.1805V10.1764C38.1805 10.3757 38.0072 10.4754 37.6605 10.4754ZM38.1805 2.51936V5.74336H42.1195V2.51936C42.1195 2.19003 41.9505 1.93869 41.6125 1.76536C41.2832 1.59203 40.7979 1.50536 40.1565 1.50536C39.5152 1.50536 39.0255 1.59203 38.6875 1.76536C38.3495 1.93869 38.1805 2.19003 38.1805 2.51936Z" fill="#D8F0FF"/>
<path d="M44.0646 9.43536V1.76536C44.0646 1.36669 44.1122 1.10669 44.2076 0.98536C44.3116 0.85536 44.5239 0.79036 44.8446 0.79036H47.5486C48.4412 0.79036 49.0869 0.955027 49.4856 1.28436C49.8842 1.60503 50.0836 2.12503 50.0836 2.84436V8.35636C50.0836 9.07569 49.8842 9.60003 49.4856 9.92936C49.0869 10.25 48.4412 10.4104 47.5486 10.4104H44.8446C44.5239 10.4104 44.3116 10.3497 44.2076 10.2284C44.1122 10.0984 44.0646 9.83403 44.0646 9.43536ZM45.1046 9.50036H47.5486C48.1119 9.50036 48.5019 9.42669 48.7186 9.27936C48.9352 9.12336 49.0436 8.85903 49.0436 8.48636V2.71436C49.0436 2.33303 48.9352 2.06869 48.7186 1.92136C48.5019 1.77403 48.1119 1.70036 47.5486 1.70036H45.1046V9.50036Z" fill="#D8F0FF"/>
<path d="M53.8746 0.59536C54.7066 0.59536 55.3436 0.773026 55.7856 1.12836C56.2362 1.48369 56.4616 1.99069 56.4616 2.64936V2.84436C56.4616 3.04369 56.2882 3.14336 55.9416 3.14336C55.5949 3.14336 55.4216 3.04369 55.4216 2.84436V2.51936C55.4216 1.84336 54.8842 1.50536 53.8096 1.50536C53.2289 1.50536 52.7869 1.59203 52.4836 1.76536C52.1802 1.93869 52.0286 2.19003 52.0286 2.51936V3.85836C52.0286 4.62103 52.4966 5.00236 53.4326 5.00236H54.4076C54.5809 5.00236 54.6676 5.15403 54.6676 5.45736C54.6676 5.76069 54.5809 5.91236 54.4076 5.91236H53.3026C52.3666 5.91236 51.8986 6.29369 51.8986 7.05636V8.68136C51.8986 9.01069 52.0589 9.26203 52.3796 9.43536C52.7089 9.60869 53.1769 9.69536 53.7836 9.69536C54.9796 9.69536 55.5776 9.35736 55.5776 8.68136V7.74536C55.5776 7.54603 55.7509 7.44636 56.0976 7.44636C56.4442 7.44636 56.6176 7.54603 56.6176 7.74536V8.55136C56.6176 9.21869 56.3706 9.73003 55.8766 10.0854C55.3912 10.432 54.6849 10.6054 53.7576 10.6054C52.8216 10.6054 52.1022 10.4277 51.5996 10.0724C51.1056 9.71703 50.8586 9.21003 50.8586 8.55136V7.05636C50.8586 6.59703 50.9496 6.23736 51.1316 5.97736C51.3222 5.71736 51.6299 5.53969 52.0546 5.44436C51.6732 5.33169 51.4002 5.14969 51.2356 4.89836C51.0709 4.63836 50.9886 4.29169 50.9886 3.85836V2.64936C50.9886 1.98203 51.2356 1.47503 51.7296 1.12836C52.2236 0.773026 52.9386 0.59536 53.8746 0.59536Z" fill="#D8F0FF"/>
<path d="M66.9351 10.1764V1.70036C66.7184 1.70036 66.5538 1.71769 66.4411 1.75236C66.3371 1.77836 66.2591 1.83903 66.2071 1.93436C66.1638 2.02969 66.1161 2.18569 66.0641 2.40236L64.3611 9.14936C64.3091 9.34869 64.1401 9.44836 63.8541 9.44836C63.5681 9.44836 63.3991 9.34869 63.3471 9.14936L61.6441 2.40236C61.5921 2.18569 61.5401 2.02969 61.4881 1.93436C61.4448 1.83036 61.3711 1.76536 61.2671 1.73936C61.1631 1.71336 60.9984 1.70036 60.7731 1.70036V10.1764C60.7731 10.3757 60.5998 10.4754 60.2531 10.4754C59.9064 10.4754 59.7331 10.3757 59.7331 10.1764V1.72636C59.7331 1.34503 59.7851 1.09369 59.8891 0.97236C59.9931 0.851027 60.2011 0.79036 60.5131 0.79036H60.7991C61.2151 0.79036 61.5314 0.820694 61.7481 0.88136C61.9734 0.93336 62.1381 1.05036 62.2421 1.23236C62.3548 1.40569 62.4544 1.67436 62.5411 2.03836L63.8541 7.43336L65.1671 2.03836C65.2538 1.67436 65.3491 1.40569 65.4531 1.23236C65.5658 1.05036 65.7304 0.93336 65.9471 0.88136C66.1724 0.820694 66.4931 0.79036 66.9091 0.79036H67.1951C67.5158 0.79036 67.7238 0.85536 67.8191 0.98536C67.9231 1.10669 67.9751 1.36669 67.9751 1.76536V10.1764C67.9751 10.3757 67.8018 10.4754 67.4551 10.4754C67.1084 10.4754 66.9351 10.3757 66.9351 10.1764Z" fill="#D8F0FF"/>
<path d="M69.3988 10.4754C69.0521 10.4754 68.8788 10.3757 68.8788 10.1764V2.64936C68.8788 1.98203 69.1431 1.47503 69.6718 1.12836C70.2005 0.773026 70.9631 0.59536 71.9598 0.59536C72.9218 0.59536 73.6498 0.768693 74.1438 1.11536C74.6465 1.46203 74.8978 1.97336 74.8978 2.64936V10.1764C74.8978 10.3757 74.7245 10.4754 74.3778 10.4754C74.0311 10.4754 73.8578 10.3757 73.8578 10.1764V6.65336H69.9188V10.1764C69.9188 10.3757 69.7455 10.4754 69.3988 10.4754ZM69.9188 2.51936V5.74336H73.8578V2.51936C73.8578 2.19003 73.6888 1.93869 73.3508 1.76536C73.0215 1.59203 72.5361 1.50536 71.8948 1.50536C71.2535 1.50536 70.7638 1.59203 70.4258 1.76536C70.0878 1.93869 69.9188 2.19003 69.9188 2.51936Z" fill="#D8F0FF"/>
<path d="M76.7128 2.51936V8.68136C76.7128 9.01069 76.8775 9.26203 77.2068 9.43536C77.5448 9.60869 78.0302 9.69536 78.6628 9.69536C79.9022 9.69536 80.5218 9.35736 80.5218 8.68136V7.74536C80.5218 7.54603 80.6952 7.44636 81.0418 7.44636C81.3885 7.44636 81.5618 7.54603 81.5618 7.74536V8.55136C81.5618 9.21869 81.3148 9.73003 80.8208 10.0854C80.3355 10.432 79.6162 10.6054 78.6628 10.6054C77.6922 10.6054 76.9512 10.4277 76.4398 10.0724C75.9285 9.71703 75.6728 9.21003 75.6728 8.55136V2.64936C75.6728 1.98203 75.9285 1.47503 76.4398 1.12836C76.9512 0.773026 77.6922 0.59536 78.6628 0.59536C79.6162 0.59536 80.3355 0.773026 80.8208 1.12836C81.3148 1.47503 81.5618 1.98203 81.5618 2.64936V3.45536C81.5618 3.65469 81.3885 3.75436 81.0418 3.75436C80.6952 3.75436 80.5218 3.65469 80.5218 3.45536V2.51936C80.5218 1.84336 79.9022 1.50536 78.6628 1.50536C78.0302 1.50536 77.5448 1.59203 77.2068 1.76536C76.8775 1.93869 76.7128 2.19003 76.7128 2.51936Z" fill="#D8F0FF"/>
<path d="M88.0984 1.02436V10.1764C88.0984 10.3757 87.9251 10.4754 87.5784 10.4754C87.2317 10.4754 87.0584 10.3757 87.0584 10.1764V6.13336H83.1194V10.1764C83.1194 10.3757 82.9461 10.4754 82.5994 10.4754C82.2527 10.4754 82.0794 10.3757 82.0794 10.1764V1.02436C82.0794 0.825026 82.2527 0.72536 82.5994 0.72536C82.9461 0.72536 83.1194 0.825026 83.1194 1.02436V5.22336H87.0584V1.02436C87.0584 0.825026 87.2317 0.72536 87.5784 0.72536C87.9251 0.72536 88.0984 0.825026 88.0984 1.02436Z" fill="#D8F0FF"/>
<path d="M89.6534 10.4754C89.3068 10.4754 89.1334 10.3757 89.1334 10.1764V1.02436C89.1334 0.825026 89.3068 0.72536 89.6534 0.72536C90.0001 0.72536 90.1734 0.825026 90.1734 1.02436V10.1764C90.1734 10.3757 90.0001 10.4754 89.6534 10.4754Z" fill="#D8F0FF"/>
<path d="M94.8185 9.22736L93.1285 2.40236C93.0765 2.18569 93.0245 2.02969 92.9725 1.93436C92.9291 1.83036 92.8555 1.76536 92.7515 1.73936C92.6475 1.71336 92.4828 1.70036 92.2575 1.70036V10.1764C92.2575 10.3757 92.0841 10.4754 91.7375 10.4754C91.3908 10.4754 91.2175 10.3757 91.2175 10.1764V1.72636C91.2175 1.34503 91.2695 1.09369 91.3735 0.97236C91.4775 0.851027 91.6855 0.79036 91.9975 0.79036H92.2835C92.6995 0.79036 93.0158 0.820694 93.2325 0.88136C93.4491 0.93336 93.6138 1.05036 93.7265 1.23236C93.8392 1.40569 93.9388 1.67436 94.0255 2.03836L95.7155 8.86336C95.7675 9.07136 95.8151 9.22736 95.8585 9.33136C95.9105 9.42669 95.9885 9.49169 96.0925 9.52636C96.2052 9.55236 96.3698 9.56536 96.5865 9.56536V1.08936C96.5865 0.890027 96.7598 0.79036 97.1065 0.79036C97.4532 0.79036 97.6265 0.890027 97.6265 1.08936V9.50036C97.6265 9.89903 97.5745 10.1634 97.4705 10.2934C97.3751 10.4147 97.1671 10.4754 96.8465 10.4754H96.5605C96.1532 10.4754 95.8368 10.4494 95.6115 10.3974C95.3948 10.3367 95.2302 10.2154 95.1175 10.0334C95.0135 9.85136 94.9138 9.58269 94.8185 9.22736Z" fill="#D8F0FF"/>
<path d="M101.421 0.59536C102.253 0.59536 102.89 0.773026 103.332 1.12836C103.783 1.48369 104.008 1.99069 104.008 2.64936V2.84436C104.008 3.04369 103.835 3.14336 103.488 3.14336C103.141 3.14336 102.968 3.04369 102.968 2.84436V2.51936C102.968 1.84336 102.431 1.50536 101.356 1.50536C100.775 1.50536 100.333 1.59203 100.03 1.76536C99.7267 1.93869 99.5751 2.19003 99.5751 2.51936V3.85836C99.5751 4.62103 100.043 5.00236 100.979 5.00236H101.954C102.127 5.00236 102.214 5.15403 102.214 5.45736C102.214 5.76069 102.127 5.91236 101.954 5.91236H100.849C99.9131 5.91236 99.4451 6.29369 99.4451 7.05636V8.68136C99.4451 9.01069 99.6054 9.26203 99.9261 9.43536C100.255 9.60869 100.723 9.69536 101.33 9.69536C102.526 9.69536 103.124 9.35736 103.124 8.68136V7.74536C103.124 7.54603 103.297 7.44636 103.644 7.44636C103.991 7.44636 104.164 7.54603 104.164 7.74536V8.55136C104.164 9.21869 103.917 9.73003 103.423 10.0854C102.938 10.432 102.231 10.6054 101.304 10.6054C100.368 10.6054 99.6487 10.4277 99.1461 10.0724C98.6521 9.71703 98.4051 9.21003 98.4051 8.55136V7.05636C98.4051 6.59703 98.4961 6.23736 98.6781 5.97736C98.8687 5.71736 99.1764 5.53969 99.6011 5.44436C99.2197 5.33169 98.9467 5.14969 98.7821 4.89836C98.6174 4.63836 98.5351 4.29169 98.5351 3.85836V2.64936C98.5351 1.98203 98.7821 1.47503 99.2761 1.12836C99.7701 0.773026 100.485 0.59536 101.421 0.59536Z" fill="#D8F0FF"/>
</g>
<g id="Text2">
<path d="M159.699 5.60036H160.83C162.009 5.60036 162.598 5.26236 162.598 4.58636V2.51936C162.598 2.19003 162.447 1.93869 162.143 1.76536C161.84 1.59203 161.398 1.50536 160.817 1.50536C159.639 1.50536 159.049 1.84336 159.049 2.51936V10.1764C159.049 10.3757 158.876 10.4754 158.529 10.4754C158.183 10.4754 158.009 10.3757 158.009 10.1764V2.64936C158.009 1.98203 158.248 1.47503 158.724 1.12836C159.21 0.773026 159.907 0.59536 160.817 0.59536C161.727 0.59536 162.425 0.773026 162.91 1.12836C163.396 1.47503 163.638 1.98203 163.638 2.64936V4.45636C163.638 4.85503 163.547 5.18003 163.365 5.43136C163.192 5.67403 162.902 5.85169 162.494 5.96436C162.616 6.05103 162.711 6.16803 162.78 6.31536C162.85 6.46269 162.915 6.64036 162.975 6.84836L163.898 10.2154C163.916 10.3887 163.751 10.4754 163.404 10.4754C163.11 10.4754 162.941 10.3757 162.897 10.1764L162.078 7.21236C162.026 7.00436 161.961 6.85269 161.883 6.75736C161.814 6.65336 161.701 6.58836 161.545 6.56236C161.389 6.52769 161.155 6.51036 160.843 6.51036H159.699C159.526 6.51036 159.439 6.35869 159.439 6.05536C159.439 5.75203 159.526 5.60036 159.699 5.60036Z" fill="#D8F0FF"/>
<path d="M166.115 5.86036H167.246C168.425 5.86036 169.014 5.52236 169.014 4.84636V2.51936C169.014 2.19003 168.863 1.93869 168.559 1.76536C168.256 1.59203 167.814 1.50536 167.233 1.50536C166.055 1.50536 165.465 1.84336 165.465 2.51936V10.1764C165.465 10.3757 165.292 10.4754 164.945 10.4754C164.599 10.4754 164.425 10.3757 164.425 10.1764V2.64936C164.425 1.98203 164.664 1.47503 165.14 1.12836C165.626 0.773026 166.323 0.59536 167.233 0.59536C168.143 0.59536 168.841 0.773026 169.326 1.12836C169.812 1.47503 170.054 1.98203 170.054 2.64936V4.71636C170.054 5.37503 169.812 5.88203 169.326 6.23736C168.85 6.59269 168.156 6.77036 167.246 6.77036H166.115C165.942 6.77036 165.855 6.61869 165.855 6.31536C165.855 6.01203 165.942 5.86036 166.115 5.86036Z" fill="#D8F0FF"/>
<path d="M171.098 10.4754C170.751 10.4754 170.578 10.3757 170.578 10.1764V1.02436C170.578 0.825026 170.751 0.72536 171.098 0.72536C171.445 0.72536 171.618 0.825026 171.618 1.02436V10.1764C171.618 10.3757 171.445 10.4754 171.098 10.4754Z" fill="#D8F0FF"/>
<path d="M176.044 10.4754C175.697 10.4754 175.524 10.3757 175.524 10.1764V2.64936C175.524 1.98203 175.788 1.47503 176.317 1.12836C176.845 0.773026 177.608 0.59536 178.605 0.59536C179.567 0.59536 180.295 0.768693 180.789 1.11536C181.291 1.46203 181.543 1.97336 181.543 2.64936V10.1764C181.543 10.3757 181.369 10.4754 181.023 10.4754C180.676 10.4754 180.503 10.3757 180.503 10.1764V6.65336H176.564V10.1764C176.564 10.3757 176.39 10.4754 176.044 10.4754ZM176.564 2.51936V5.74336H180.503V2.51936C180.503 2.19003 180.334 1.93869 179.996 1.76536C179.666 1.59203 179.181 1.50536 178.54 1.50536C177.898 1.50536 177.409 1.59203 177.071 1.76536C176.733 1.93869 176.564 2.19003 176.564 2.51936Z" fill="#D8F0FF"/>
<path d="M184.138 5.60036H185.269C186.447 5.60036 187.037 5.26236 187.037 4.58636V2.51936C187.037 2.19003 186.885 1.93869 186.582 1.76536C186.278 1.59203 185.836 1.50536 185.256 1.50536C184.077 1.50536 183.488 1.84336 183.488 2.51936V10.1764C183.488 10.3757 183.314 10.4754 182.968 10.4754C182.621 10.4754 182.448 10.3757 182.448 10.1764V2.64936C182.448 1.98203 182.686 1.47503 183.163 1.12836C183.648 0.773026 184.346 0.59536 185.256 0.59536C186.166 0.59536 186.863 0.773026 187.349 1.12836C187.834 1.47503 188.077 1.98203 188.077 2.64936V4.45636C188.077 4.85503 187.986 5.18003 187.804 5.43136C187.63 5.67403 187.34 5.85169 186.933 5.96436C187.054 6.05103 187.149 6.16803 187.219 6.31536C187.288 6.46269 187.353 6.64036 187.414 6.84836L188.337 10.2154C188.354 10.3887 188.189 10.4754 187.843 10.4754C187.548 10.4754 187.379 10.3757 187.336 10.1764L186.517 7.21236C186.465 7.00436 186.4 6.85269 186.322 6.75736C186.252 6.65336 186.14 6.58836 185.984 6.56236C185.828 6.52769 185.594 6.51036 185.282 6.51036H184.138C183.964 6.51036 183.878 6.35869 183.878 6.05536C183.878 5.75203 183.964 5.60036 184.138 5.60036Z" fill="#D8F0FF"/>
<path d="M189.774 2.51936V8.68136C189.774 9.01069 189.939 9.26203 190.268 9.43536C190.606 9.60869 191.091 9.69536 191.724 9.69536C192.963 9.69536 193.583 9.35736 193.583 8.68136V7.74536C193.583 7.54603 193.756 7.44636 194.103 7.44636C194.45 7.44636 194.623 7.54603 194.623 7.74536V8.55136C194.623 9.21869 194.376 9.73003 193.882 10.0854C193.397 10.432 192.677 10.6054 191.724 10.6054C190.753 10.6054 190.012 10.4277 189.501 10.0724C188.99 9.71703 188.734 9.21003 188.734 8.55136V2.64936C188.734 1.98203 188.99 1.47503 189.501 1.12836C190.012 0.773026 190.753 0.59536 191.724 0.59536C192.677 0.59536 193.397 0.773026 193.882 1.12836C194.376 1.47503 194.623 1.98203 194.623 2.64936V3.45536C194.623 3.65469 194.45 3.75436 194.103 3.75436C193.756 3.75436 193.583 3.65469 193.583 3.45536V2.51936C193.583 1.84336 192.963 1.50536 191.724 1.50536C191.091 1.50536 190.606 1.59203 190.268 1.76536C189.939 1.93869 189.774 2.19003 189.774 2.51936Z" fill="#D8F0FF"/>
<path d="M195.661 10.4754C195.314 10.4754 195.141 10.3757 195.141 10.1764V2.64936C195.141 1.98203 195.405 1.47503 195.934 1.12836C196.462 0.773026 197.225 0.59536 198.222 0.59536C199.184 0.59536 199.912 0.768693 200.406 1.11536C200.908 1.46203 201.16 1.97336 201.16 2.64936V10.1764C201.16 10.3757 200.986 10.4754 200.64 10.4754C200.293 10.4754 200.12 10.3757 200.12 10.1764V6.65336H196.181V10.1764C196.181 10.3757 196.007 10.4754 195.661 10.4754ZM196.181 2.51936V5.74336H200.12V2.51936C200.12 2.19003 199.951 1.93869 199.613 1.76536C199.283 1.59203 198.798 1.50536 198.157 1.50536C197.515 1.50536 197.026 1.59203 196.688 1.76536C196.35 1.93869 196.181 2.19003 196.181 2.51936Z" fill="#D8F0FF"/>
<path d="M202.065 9.43536V1.76536C202.065 1.36669 202.112 1.10669 202.208 0.98536C202.312 0.85536 202.524 0.79036 202.845 0.79036H205.549C206.441 0.79036 207.087 0.955027 207.486 1.28436C207.884 1.60503 208.084 2.12503 208.084 2.84436V8.35636C208.084 9.07569 207.884 9.60003 207.486 9.92936C207.087 10.25 206.441 10.4104 205.549 10.4104H202.845C202.524 10.4104 202.312 10.3497 202.208 10.2284C202.112 10.0984 202.065 9.83403 202.065 9.43536ZM203.105 9.50036H205.549C206.112 9.50036 206.502 9.42669 206.719 9.27936C206.935 9.12336 207.044 8.85903 207.044 8.48636V2.71436C207.044 2.33303 206.935 2.06869 206.719 1.92136C206.502 1.77403 206.112 1.70036 205.549 1.70036H203.105V9.50036Z" fill="#D8F0FF"/>
<path d="M211.875 0.59536C212.707 0.59536 213.344 0.773026 213.786 1.12836C214.236 1.48369 214.462 1.99069 214.462 2.64936V2.84436C214.462 3.04369 214.288 3.14336 213.942 3.14336C213.595 3.14336 213.422 3.04369 213.422 2.84436V2.51936C213.422 1.84336 212.884 1.50536 211.81 1.50536C211.229 1.50536 210.787 1.59203 210.484 1.76536C210.18 1.93869 210.029 2.19003 210.029 2.51936V3.85836C210.029 4.62103 210.497 5.00236 211.433 5.00236H212.408C212.581 5.00236 212.668 5.15403 212.668 5.45736C212.668 5.76069 212.581 5.91236 212.408 5.91236H211.303C210.367 5.91236 209.899 6.29369 209.899 7.05636V8.68136C209.899 9.01069 210.059 9.26203 210.38 9.43536C210.709 9.60869 211.177 9.69536 211.784 9.69536C212.98 9.69536 213.578 9.35736 213.578 8.68136V7.74536C213.578 7.54603 213.751 7.44636 214.098 7.44636C214.444 7.44636 214.618 7.54603 214.618 7.74536V8.55136C214.618 9.21869 214.371 9.73003 213.877 10.0854C213.391 10.432 212.685 10.6054 211.758 10.6054C210.822 10.6054 210.102 10.4277 209.6 10.0724C209.106 9.71703 208.859 9.21003 208.859 8.55136V7.05636C208.859 6.59703 208.95 6.23736 209.132 5.97736C209.322 5.71736 209.63 5.53969 210.055 5.44436C209.673 5.33169 209.4 5.14969 209.236 4.89836C209.071 4.63836 208.989 4.29169 208.989 3.85836V2.64936C208.989 1.98203 209.236 1.47503 209.73 1.12836C210.224 0.773026 210.939 0.59536 211.875 0.59536Z" fill="#D8F0FF"/>
<path d="M224.935 10.1764V1.70036C224.718 1.70036 224.554 1.71769 224.441 1.75236C224.337 1.77836 224.259 1.83903 224.207 1.93436C224.164 2.02969 224.116 2.18569 224.064 2.40236L222.361 9.14936C222.309 9.34869 222.14 9.44836 221.854 9.44836C221.568 9.44836 221.399 9.34869 221.347 9.14936L219.644 2.40236C219.592 2.18569 219.54 2.02969 219.488 1.93436C219.445 1.83036 219.371 1.76536 219.267 1.73936C219.163 1.71336 218.998 1.70036 218.773 1.70036V10.1764C218.773 10.3757 218.6 10.4754 218.253 10.4754C217.906 10.4754 217.733 10.3757 217.733 10.1764V1.72636C217.733 1.34503 217.785 1.09369 217.889 0.97236C217.993 0.851027 218.201 0.79036 218.513 0.79036H218.799C219.215 0.79036 219.531 0.820694 219.748 0.88136C219.973 0.93336 220.138 1.05036 220.242 1.23236C220.355 1.40569 220.454 1.67436 220.541 2.03836L221.854 7.43336L223.167 2.03836C223.254 1.67436 223.349 1.40569 223.453 1.23236C223.566 1.05036 223.73 0.93336 223.947 0.88136C224.172 0.820694 224.493 0.79036 224.909 0.79036H225.195C225.516 0.79036 225.724 0.85536 225.819 0.98536C225.923 1.10669 225.975 1.36669 225.975 1.76536V10.1764C225.975 10.3757 225.802 10.4754 225.455 10.4754C225.108 10.4754 224.935 10.3757 224.935 10.1764Z" fill="#D8F0FF"/>
<path d="M227.399 10.4754C227.052 10.4754 226.879 10.3757 226.879 10.1764V2.64936C226.879 1.98203 227.143 1.47503 227.672 1.12836C228.2 0.773026 228.963 0.59536 229.96 0.59536C230.922 0.59536 231.65 0.768693 232.144 1.11536C232.646 1.46203 232.898 1.97336 232.898 2.64936V10.1764C232.898 10.3757 232.724 10.4754 232.378 10.4754C232.031 10.4754 231.858 10.3757 231.858 10.1764V6.65336H227.919V10.1764C227.919 10.3757 227.745 10.4754 227.399 10.4754ZM227.919 2.51936V5.74336H231.858V2.51936C231.858 2.19003 231.689 1.93869 231.351 1.76536C231.021 1.59203 230.536 1.50536 229.895 1.50536C229.253 1.50536 228.764 1.59203 228.426 1.76536C228.088 1.93869 227.919 2.19003 227.919 2.51936Z" fill="#D8F0FF"/>
<path d="M234.713 2.51936V8.68136C234.713 9.01069 234.877 9.26203 235.207 9.43536C235.545 9.60869 236.03 9.69536 236.663 9.69536C237.902 9.69536 238.522 9.35736 238.522 8.68136V7.74536C238.522 7.54603 238.695 7.44636 239.042 7.44636C239.388 7.44636 239.562 7.54603 239.562 7.74536V8.55136C239.562 9.21869 239.315 9.73003 238.821 10.0854C238.335 10.432 237.616 10.6054 236.663 10.6054C235.692 10.6054 234.951 10.4277 234.44 10.0724C233.929 9.71703 233.673 9.21003 233.673 8.55136V2.64936C233.673 1.98203 233.929 1.47503 234.44 1.12836C234.951 0.773026 235.692 0.59536 236.663 0.59536C237.616 0.59536 238.335 0.773026 238.821 1.12836C239.315 1.47503 239.562 1.98203 239.562 2.64936V3.45536C239.562 3.65469 239.388 3.75436 239.042 3.75436C238.695 3.75436 238.522 3.65469 238.522 3.45536V2.51936C238.522 1.84336 237.902 1.50536 236.663 1.50536C236.03 1.50536 235.545 1.59203 235.207 1.76536C234.877 1.93869 234.713 2.19003 234.713 2.51936Z" fill="#D8F0FF"/>
<path d="M246.098 1.02436V10.1764C246.098 10.3757 245.925 10.4754 245.578 10.4754C245.232 10.4754 245.058 10.3757 245.058 10.1764V6.13336H241.119V10.1764C241.119 10.3757 240.946 10.4754 240.599 10.4754C240.253 10.4754 240.079 10.3757 240.079 10.1764V1.02436C240.079 0.825026 240.253 0.72536 240.599 0.72536C240.946 0.72536 241.119 0.825026 241.119 1.02436V5.22336H245.058V1.02436C245.058 0.825026 245.232 0.72536 245.578 0.72536C245.925 0.72536 246.098 0.825026 246.098 1.02436Z" fill="#D8F0FF"/>
<path d="M247.653 10.4754C247.307 10.4754 247.133 10.3757 247.133 10.1764V1.02436C247.133 0.825026 247.307 0.72536 247.653 0.72536C248 0.72536 248.173 0.825026 248.173 1.02436V10.1764C248.173 10.3757 248 10.4754 247.653 10.4754Z" fill="#D8F0FF"/>
<path d="M252.818 9.22736L251.128 2.40236C251.076 2.18569 251.024 2.02969 250.972 1.93436C250.929 1.83036 250.855 1.76536 250.751 1.73936C250.647 1.71336 250.483 1.70036 250.257 1.70036V10.1764C250.257 10.3757 250.084 10.4754 249.737 10.4754C249.391 10.4754 249.217 10.3757 249.217 10.1764V1.72636C249.217 1.34503 249.269 1.09369 249.373 0.97236C249.477 0.851027 249.685 0.79036 249.997 0.79036H250.283C250.699 0.79036 251.016 0.820694 251.232 0.88136C251.449 0.93336 251.614 1.05036 251.726 1.23236C251.839 1.40569 251.939 1.67436 252.025 2.03836L253.715 8.86336C253.767 9.07136 253.815 9.22736 253.858 9.33136C253.91 9.42669 253.988 9.49169 254.092 9.52636C254.205 9.55236 254.37 9.56536 254.586 9.56536V1.08936C254.586 0.890027 254.76 0.79036 255.106 0.79036C255.453 0.79036 255.626 0.890027 255.626 1.08936V9.50036C255.626 9.89903 255.574 10.1634 255.47 10.2934C255.375 10.4147 255.167 10.4754 254.846 10.4754H254.56C254.153 10.4754 253.837 10.4494 253.611 10.3974C253.395 10.3367 253.23 10.2154 253.117 10.0334C253.013 9.85136 252.914 9.58269 252.818 9.22736Z" fill="#D8F0FF"/>
<path d="M259.421 0.59536C260.253 0.59536 260.89 0.773026 261.332 1.12836C261.783 1.48369 262.008 1.99069 262.008 2.64936V2.84436C262.008 3.04369 261.835 3.14336 261.488 3.14336C261.141 3.14336 260.968 3.04369 260.968 2.84436V2.51936C260.968 1.84336 260.431 1.50536 259.356 1.50536C258.775 1.50536 258.333 1.59203 258.03 1.76536C257.727 1.93869 257.575 2.19003 257.575 2.51936V3.85836C257.575 4.62103 258.043 5.00236 258.979 5.00236H259.954C260.127 5.00236 260.214 5.15403 260.214 5.45736C260.214 5.76069 260.127 5.91236 259.954 5.91236H258.849C257.913 5.91236 257.445 6.29369 257.445 7.05636V8.68136C257.445 9.01069 257.605 9.26203 257.926 9.43536C258.255 9.60869 258.723 9.69536 259.33 9.69536C260.526 9.69536 261.124 9.35736 261.124 8.68136V7.74536C261.124 7.54603 261.297 7.44636 261.644 7.44636C261.991 7.44636 262.164 7.54603 262.164 7.74536V8.55136C262.164 9.21869 261.917 9.73003 261.423 10.0854C260.938 10.432 260.231 10.6054 259.304 10.6054C258.368 10.6054 257.649 10.4277 257.146 10.0724C256.652 9.71703 256.405 9.21003 256.405 8.55136V7.05636C256.405 6.59703 256.496 6.23736 256.678 5.97736C256.869 5.71736 257.176 5.53969 257.601 5.44436C257.22 5.33169 256.947 5.14969 256.782 4.89836C256.617 4.63836 256.535 4.29169 256.535 3.85836V2.64936C256.535 1.98203 256.782 1.47503 257.276 1.12836C257.77 0.773026 258.485 0.59536 259.421 0.59536Z" fill="#D8F0FF"/>
</g>
<g id="Text3">
<path d="M633.699 5.60036H634.83C636.009 5.60036 636.598 5.26236 636.598 4.58636V2.51936C636.598 2.19003 636.447 1.93869 636.143 1.76536C635.84 1.59203 635.398 1.50536 634.817 1.50536C633.639 1.50536 633.049 1.84336 633.049 2.51936V10.1764C633.049 10.3757 632.876 10.4754 632.529 10.4754C632.183 10.4754 632.009 10.3757 632.009 10.1764V2.64936C632.009 1.98203 632.248 1.47503 632.724 1.12836C633.21 0.773026 633.907 0.59536 634.817 0.59536C635.727 0.59536 636.425 0.773026 636.91 1.12836C637.396 1.47503 637.638 1.98203 637.638 2.64936V4.45636C637.638 4.85503 637.547 5.18003 637.365 5.43136C637.192 5.67403 636.902 5.85169 636.494 5.96436C636.616 6.05103 636.711 6.16803 636.78 6.31536C636.85 6.46269 636.915 6.64036 636.975 6.84836L637.898 10.2154C637.916 10.3887 637.751 10.4754 637.404 10.4754C637.11 10.4754 636.941 10.3757 636.897 10.1764L636.078 7.21236C636.026 7.00436 635.961 6.85269 635.883 6.75736C635.814 6.65336 635.701 6.58836 635.545 6.56236C635.389 6.52769 635.155 6.51036 634.843 6.51036H633.699C633.526 6.51036 633.439 6.35869 633.439 6.05536C633.439 5.75203 633.526 5.60036 633.699 5.60036Z" fill="#D8F0FF"/>
<path d="M640.115 5.86036H641.246C642.425 5.86036 643.014 5.52236 643.014 4.84636V2.51936C643.014 2.19003 642.863 1.93869 642.559 1.76536C642.256 1.59203 641.814 1.50536 641.233 1.50536C640.055 1.50536 639.465 1.84336 639.465 2.51936V10.1764C639.465 10.3757 639.292 10.4754 638.945 10.4754C638.599 10.4754 638.425 10.3757 638.425 10.1764V2.64936C638.425 1.98203 638.664 1.47503 639.14 1.12836C639.626 0.773026 640.323 0.59536 641.233 0.59536C642.143 0.59536 642.841 0.773026 643.326 1.12836C643.812 1.47503 644.054 1.98203 644.054 2.64936V4.71636C644.054 5.37503 643.812 5.88203 643.326 6.23736C642.85 6.59269 642.156 6.77036 641.246 6.77036H640.115C639.942 6.77036 639.855 6.61869 639.855 6.31536C639.855 6.01203 639.942 5.86036 640.115 5.86036Z" fill="#D8F0FF"/>
<path d="M645.098 10.4754C644.751 10.4754 644.578 10.3757 644.578 10.1764V1.02436C644.578 0.825026 644.751 0.72536 645.098 0.72536C645.445 0.72536 645.618 0.825026 645.618 1.02436V10.1764C645.618 10.3757 645.445 10.4754 645.098 10.4754Z" fill="#D8F0FF"/>
<path d="M650.044 10.4754C649.697 10.4754 649.524 10.3757 649.524 10.1764V2.64936C649.524 1.98203 649.788 1.47503 650.317 1.12836C650.845 0.773026 651.608 0.59536 652.605 0.59536C653.567 0.59536 654.295 0.768693 654.789 1.11536C655.291 1.46203 655.543 1.97336 655.543 2.64936V10.1764C655.543 10.3757 655.369 10.4754 655.023 10.4754C654.676 10.4754 654.503 10.3757 654.503 10.1764V6.65336H650.564V10.1764C650.564 10.3757 650.39 10.4754 650.044 10.4754ZM650.564 2.51936V5.74336H654.503V2.51936C654.503 2.19003 654.334 1.93869 653.996 1.76536C653.666 1.59203 653.181 1.50536 652.54 1.50536C651.898 1.50536 651.409 1.59203 651.071 1.76536C650.733 1.93869 650.564 2.19003 650.564 2.51936Z" fill="#D8F0FF"/>
<path d="M658.138 5.60036H659.269C660.447 5.60036 661.037 5.26236 661.037 4.58636V2.51936C661.037 2.19003 660.885 1.93869 660.582 1.76536C660.278 1.59203 659.836 1.50536 659.256 1.50536C658.077 1.50536 657.488 1.84336 657.488 2.51936V10.1764C657.488 10.3757 657.314 10.4754 656.968 10.4754C656.621 10.4754 656.448 10.3757 656.448 10.1764V2.64936C656.448 1.98203 656.686 1.47503 657.163 1.12836C657.648 0.773026 658.346 0.59536 659.256 0.59536C660.166 0.59536 660.863 0.773026 661.349 1.12836C661.834 1.47503 662.077 1.98203 662.077 2.64936V4.45636C662.077 4.85503 661.986 5.18003 661.804 5.43136C661.63 5.67403 661.34 5.85169 660.933 5.96436C661.054 6.05103 661.149 6.16803 661.219 6.31536C661.288 6.46269 661.353 6.64036 661.414 6.84836L662.337 10.2154C662.354 10.3887 662.189 10.4754 661.843 10.4754C661.548 10.4754 661.379 10.3757 661.336 10.1764L660.517 7.21236C660.465 7.00436 660.4 6.85269 660.322 6.75736C660.252 6.65336 660.14 6.58836 659.984 6.56236C659.828 6.52769 659.594 6.51036 659.282 6.51036H658.138C657.964 6.51036 657.878 6.35869 657.878 6.05536C657.878 5.75203 657.964 5.60036 658.138 5.60036Z" fill="#D8F0FF"/>
<path d="M663.774 2.51936V8.68136C663.774 9.01069 663.939 9.26203 664.268 9.43536C664.606 9.60869 665.091 9.69536 665.724 9.69536C666.963 9.69536 667.583 9.35736 667.583 8.68136V7.74536C667.583 7.54603 667.756 7.44636 668.103 7.44636C668.45 7.44636 668.623 7.54603 668.623 7.74536V8.55136C668.623 9.21869 668.376 9.73003 667.882 10.0854C667.397 10.432 666.677 10.6054 665.724 10.6054C664.753 10.6054 664.012 10.4277 663.501 10.0724C662.99 9.71703 662.734 9.21003 662.734 8.55136V2.64936C662.734 1.98203 662.99 1.47503 663.501 1.12836C664.012 0.773026 664.753 0.59536 665.724 0.59536C666.677 0.59536 667.397 0.773026 667.882 1.12836C668.376 1.47503 668.623 1.98203 668.623 2.64936V3.45536C668.623 3.65469 668.45 3.75436 668.103 3.75436C667.756 3.75436 667.583 3.65469 667.583 3.45536V2.51936C667.583 1.84336 666.963 1.50536 665.724 1.50536C665.091 1.50536 664.606 1.59203 664.268 1.76536C663.939 1.93869 663.774 2.19003 663.774 2.51936Z" fill="#D8F0FF"/>
<path d="M669.661 10.4754C669.314 10.4754 669.141 10.3757 669.141 10.1764V2.64936C669.141 1.98203 669.405 1.47503 669.934 1.12836C670.462 0.773026 671.225 0.59536 672.222 0.59536C673.184 0.59536 673.912 0.768693 674.406 1.11536C674.908 1.46203 675.16 1.97336 675.16 2.64936V10.1764C675.16 10.3757 674.986 10.4754 674.64 10.4754C674.293 10.4754 674.12 10.3757 674.12 10.1764V6.65336H670.181V10.1764C670.181 10.3757 670.007 10.4754 669.661 10.4754ZM670.181 2.51936V5.74336H674.12V2.51936C674.12 2.19003 673.951 1.93869 673.613 1.76536C673.283 1.59203 672.798 1.50536 672.157 1.50536C671.515 1.50536 671.026 1.59203 670.688 1.76536C670.35 1.93869 670.181 2.19003 670.181 2.51936Z" fill="#D8F0FF"/>
<path d="M676.065 9.43536V1.76536C676.065 1.36669 676.112 1.10669 676.208 0.98536C676.312 0.85536 676.524 0.79036 676.845 0.79036H679.549C680.441 0.79036 681.087 0.955027 681.486 1.28436C681.884 1.60503 682.084 2.12503 682.084 2.84436V8.35636C682.084 9.07569 681.884 9.60003 681.486 9.92936C681.087 10.25 680.441 10.4104 679.549 10.4104H676.845C676.524 10.4104 676.312 10.3497 676.208 10.2284C676.112 10.0984 676.065 9.83403 676.065 9.43536ZM677.105 9.50036H679.549C680.112 9.50036 680.502 9.42669 680.719 9.27936C680.935 9.12336 681.044 8.85903 681.044 8.48636V2.71436C681.044 2.33303 680.935 2.06869 680.719 1.92136C680.502 1.77403 680.112 1.70036 679.549 1.70036H677.105V9.50036Z" fill="#D8F0FF"/>
<path d="M685.875 0.59536C686.707 0.59536 687.344 0.773026 687.786 1.12836C688.236 1.48369 688.462 1.99069 688.462 2.64936V2.84436C688.462 3.04369 688.288 3.14336 687.942 3.14336C687.595 3.14336 687.422 3.04369 687.422 2.84436V2.51936C687.422 1.84336 686.884 1.50536 685.81 1.50536C685.229 1.50536 684.787 1.59203 684.484 1.76536C684.18 1.93869 684.029 2.19003 684.029 2.51936V3.85836C684.029 4.62103 684.497 5.00236 685.433 5.00236H686.408C686.581 5.00236 686.668 5.15403 686.668 5.45736C686.668 5.76069 686.581 5.91236 686.408 5.91236H685.303C684.367 5.91236 683.899 6.29369 683.899 7.05636V8.68136C683.899 9.01069 684.059 9.26203 684.38 9.43536C684.709 9.60869 685.177 9.69536 685.784 9.69536C686.98 9.69536 687.578 9.35736 687.578 8.68136V7.74536C687.578 7.54603 687.751 7.44636 688.098 7.44636C688.444 7.44636 688.618 7.54603 688.618 7.74536V8.55136C688.618 9.21869 688.371 9.73003 687.877 10.0854C687.391 10.432 686.685 10.6054 685.758 10.6054C684.822 10.6054 684.102 10.4277 683.6 10.0724C683.106 9.71703 682.859 9.21003 682.859 8.55136V7.05636C682.859 6.59703 682.95 6.23736 683.132 5.97736C683.322 5.71736 683.63 5.53969 684.055 5.44436C683.673 5.33169 683.4 5.14969 683.236 4.89836C683.071 4.63836 682.989 4.29169 682.989 3.85836V2.64936C682.989 1.98203 683.236 1.47503 683.73 1.12836C684.224 0.773026 684.939 0.59536 685.875 0.59536Z" fill="#D8F0FF"/>
<path d="M698.935 10.1764V1.70036C698.718 1.70036 698.554 1.71769 698.441 1.75236C698.337 1.77836 698.259 1.83903 698.207 1.93436C698.164 2.02969 698.116 2.18569 698.064 2.40236L696.361 9.14936C696.309 9.34869 696.14 9.44836 695.854 9.44836C695.568 9.44836 695.399 9.34869 695.347 9.14936L693.644 2.40236C693.592 2.18569 693.54 2.02969 693.488 1.93436C693.445 1.83036 693.371 1.76536 693.267 1.73936C693.163 1.71336 692.998 1.70036 692.773 1.70036V10.1764C692.773 10.3757 692.6 10.4754 692.253 10.4754C691.906 10.4754 691.733 10.3757 691.733 10.1764V1.72636C691.733 1.34503 691.785 1.09369 691.889 0.97236C691.993 0.851027 692.201 0.79036 692.513 0.79036H692.799C693.215 0.79036 693.531 0.820694 693.748 0.88136C693.973 0.93336 694.138 1.05036 694.242 1.23236C694.355 1.40569 694.454 1.67436 694.541 2.03836L695.854 7.43336L697.167 2.03836C697.254 1.67436 697.349 1.40569 697.453 1.23236C697.566 1.05036 697.73 0.93336 697.947 0.88136C698.172 0.820694 698.493 0.79036 698.909 0.79036H699.195C699.516 0.79036 699.724 0.85536 699.819 0.98536C699.923 1.10669 699.975 1.36669 699.975 1.76536V10.1764C699.975 10.3757 699.802 10.4754 699.455 10.4754C699.108 10.4754 698.935 10.3757 698.935 10.1764Z" fill="#D8F0FF"/>
<path d="M701.399 10.4754C701.052 10.4754 700.879 10.3757 700.879 10.1764V2.64936C700.879 1.98203 701.143 1.47503 701.672 1.12836C702.2 0.773026 702.963 0.59536 703.96 0.59536C704.922 0.59536 705.65 0.768693 706.144 1.11536C706.646 1.46203 706.898 1.97336 706.898 2.64936V10.1764C706.898 10.3757 706.724 10.4754 706.378 10.4754C706.031 10.4754 705.858 10.3757 705.858 10.1764V6.65336H701.919V10.1764C701.919 10.3757 701.745 10.4754 701.399 10.4754ZM701.919 2.51936V5.74336H705.858V2.51936C705.858 2.19003 705.689 1.93869 705.351 1.76536C705.021 1.59203 704.536 1.50536 703.895 1.50536C703.253 1.50536 702.764 1.59203 702.426 1.76536C702.088 1.93869 701.919 2.19003 701.919 2.51936Z" fill="#D8F0FF"/>
<path d="M708.713 2.51936V8.68136C708.713 9.01069 708.877 9.26203 709.207 9.43536C709.545 9.60869 710.03 9.69536 710.663 9.69536C711.902 9.69536 712.522 9.35736 712.522 8.68136V7.74536C712.522 7.54603 712.695 7.44636 713.042 7.44636C713.388 7.44636 713.562 7.54603 713.562 7.74536V8.55136C713.562 9.21869 713.315 9.73003 712.821 10.0854C712.335 10.432 711.616 10.6054 710.663 10.6054C709.692 10.6054 708.951 10.4277 708.44 10.0724C707.929 9.71703 707.673 9.21003 707.673 8.55136V2.64936C707.673 1.98203 707.929 1.47503 708.44 1.12836C708.951 0.773026 709.692 0.59536 710.663 0.59536C711.616 0.59536 712.335 0.773026 712.821 1.12836C713.315 1.47503 713.562 1.98203 713.562 2.64936V3.45536C713.562 3.65469 713.388 3.75436 713.042 3.75436C712.695 3.75436 712.522 3.65469 712.522 3.45536V2.51936C712.522 1.84336 711.902 1.50536 710.663 1.50536C710.03 1.50536 709.545 1.59203 709.207 1.76536C708.877 1.93869 708.713 2.19003 708.713 2.51936Z" fill="#D8F0FF"/>
<path d="M720.098 1.02436V10.1764C720.098 10.3757 719.925 10.4754 719.578 10.4754C719.232 10.4754 719.058 10.3757 719.058 10.1764V6.13336H715.119V10.1764C715.119 10.3757 714.946 10.4754 714.599 10.4754C714.253 10.4754 714.079 10.3757 714.079 10.1764V1.02436C714.079 0.825026 714.253 0.72536 714.599 0.72536C714.946 0.72536 715.119 0.825026 715.119 1.02436V5.22336H719.058V1.02436C719.058 0.825026 719.232 0.72536 719.578 0.72536C719.925 0.72536 720.098 0.825026 720.098 1.02436Z" fill="#D8F0FF"/>
<path d="M721.653 10.4754C721.307 10.4754 721.133 10.3757 721.133 10.1764V1.02436C721.133 0.825026 721.307 0.72536 721.653 0.72536C722 0.72536 722.173 0.825026 722.173 1.02436V10.1764C722.173 10.3757 722 10.4754 721.653 10.4754Z" fill="#D8F0FF"/>
<path d="M726.818 9.22736L725.128 2.40236C725.076 2.18569 725.024 2.02969 724.972 1.93436C724.929 1.83036 724.855 1.76536 724.751 1.73936C724.647 1.71336 724.483 1.70036 724.257 1.70036V10.1764C724.257 10.3757 724.084 10.4754 723.737 10.4754C723.391 10.4754 723.217 10.3757 723.217 10.1764V1.72636C723.217 1.34503 723.269 1.09369 723.373 0.97236C723.477 0.851027 723.685 0.79036 723.997 0.79036H724.283C724.699 0.79036 725.016 0.820694 725.232 0.88136C725.449 0.93336 725.614 1.05036 725.726 1.23236C725.839 1.40569 725.939 1.67436 726.025 2.03836L727.715 8.86336C727.767 9.07136 727.815 9.22736 727.858 9.33136C727.91 9.42669 727.988 9.49169 728.092 9.52636C728.205 9.55236 728.37 9.56536 728.586 9.56536V1.08936C728.586 0.890027 728.76 0.79036 729.106 0.79036C729.453 0.79036 729.626 0.890027 729.626 1.08936V9.50036C729.626 9.89903 729.574 10.1634 729.47 10.2934C729.375 10.4147 729.167 10.4754 728.846 10.4754H728.56C728.153 10.4754 727.837 10.4494 727.611 10.3974C727.395 10.3367 727.23 10.2154 727.117 10.0334C727.013 9.85136 726.914 9.58269 726.818 9.22736Z" fill="#D8F0FF"/>
<path d="M733.421 0.59536C734.253 0.59536 734.89 0.773026 735.332 1.12836C735.783 1.48369 736.008 1.99069 736.008 2.64936V2.84436C736.008 3.04369 735.835 3.14336 735.488 3.14336C735.141 3.14336 734.968 3.04369 734.968 2.84436V2.51936C734.968 1.84336 734.431 1.50536 733.356 1.50536C732.775 1.50536 732.333 1.59203 732.03 1.76536C731.727 1.93869 731.575 2.19003 731.575 2.51936V3.85836C731.575 4.62103 732.043 5.00236 732.979 5.00236H733.954C734.127 5.00236 734.214 5.15403 734.214 5.45736C734.214 5.76069 734.127 5.91236 733.954 5.91236H732.849C731.913 5.91236 731.445 6.29369 731.445 7.05636V8.68136C731.445 9.01069 731.605 9.26203 731.926 9.43536C732.255 9.60869 732.723 9.69536 733.33 9.69536C734.526 9.69536 735.124 9.35736 735.124 8.68136V7.74536C735.124 7.54603 735.297 7.44636 735.644 7.44636C735.991 7.44636 736.164 7.54603 736.164 7.74536V8.55136C736.164 9.21869 735.917 9.73003 735.423 10.0854C734.938 10.432 734.231 10.6054 733.304 10.6054C732.368 10.6054 731.649 10.4277 731.146 10.0724C730.652 9.71703 730.405 9.21003 730.405 8.55136V7.05636C730.405 6.59703 730.496 6.23736 730.678 5.97736C730.869 5.71736 731.176 5.53969 731.601 5.44436C731.22 5.33169 730.947 5.14969 730.782 4.89836C730.617 4.63836 730.535 4.29169 730.535 3.85836V2.64936C730.535 1.98203 730.782 1.47503 731.276 1.12836C731.77 0.773026 732.485 0.59536 733.421 0.59536Z" fill="#D8F0FF"/>
</g>
<g id="Text4">
<path d="M791.699 5.60036H792.83C794.009 5.60036 794.598 5.26236 794.598 4.58636V2.51936C794.598 2.19003 794.447 1.93869 794.143 1.76536C793.84 1.59203 793.398 1.50536 792.817 1.50536C791.639 1.50536 791.049 1.84336 791.049 2.51936V10.1764C791.049 10.3757 790.876 10.4754 790.529 10.4754C790.183 10.4754 790.009 10.3757 790.009 10.1764V2.64936C790.009 1.98203 790.248 1.47503 790.724 1.12836C791.21 0.773026 791.907 0.59536 792.817 0.59536C793.727 0.59536 794.425 0.773026 794.91 1.12836C795.396 1.47503 795.638 1.98203 795.638 2.64936V4.45636C795.638 4.85503 795.547 5.18003 795.365 5.43136C795.192 5.67403 794.902 5.85169 794.494 5.96436C794.616 6.05103 794.711 6.16803 794.78 6.31536C794.85 6.46269 794.915 6.64036 794.975 6.84836L795.898 10.2154C795.916 10.3887 795.751 10.4754 795.404 10.4754C795.11 10.4754 794.941 10.3757 794.897 10.1764L794.078 7.21236C794.026 7.00436 793.961 6.85269 793.883 6.75736C793.814 6.65336 793.701 6.58836 793.545 6.56236C793.389 6.52769 793.155 6.51036 792.843 6.51036H791.699C791.526 6.51036 791.439 6.35869 791.439 6.05536C791.439 5.75203 791.526 5.60036 791.699 5.60036Z" fill="#D8F0FF"/>
<path d="M798.115 5.86036H799.246C800.425 5.86036 801.014 5.52236 801.014 4.84636V2.51936C801.014 2.19003 800.863 1.93869 800.559 1.76536C800.256 1.59203 799.814 1.50536 799.233 1.50536C798.055 1.50536 797.465 1.84336 797.465 2.51936V10.1764C797.465 10.3757 797.292 10.4754 796.945 10.4754C796.599 10.4754 796.425 10.3757 796.425 10.1764V2.64936C796.425 1.98203 796.664 1.47503 797.14 1.12836C797.626 0.773026 798.323 0.59536 799.233 0.59536C800.143 0.59536 800.841 0.773026 801.326 1.12836C801.812 1.47503 802.054 1.98203 802.054 2.64936V4.71636C802.054 5.37503 801.812 5.88203 801.326 6.23736C800.85 6.59269 800.156 6.77036 799.246 6.77036H798.115C797.942 6.77036 797.855 6.61869 797.855 6.31536C797.855 6.01203 797.942 5.86036 798.115 5.86036Z" fill="#D8F0FF"/>
<path d="M803.098 10.4754C802.751 10.4754 802.578 10.3757 802.578 10.1764V1.02436C802.578 0.825026 802.751 0.72536 803.098 0.72536C803.445 0.72536 803.618 0.825026 803.618 1.02436V10.1764C803.618 10.3757 803.445 10.4754 803.098 10.4754Z" fill="#D8F0FF"/>
<path d="M808.044 10.4754C807.697 10.4754 807.524 10.3757 807.524 10.1764V2.64936C807.524 1.98203 807.788 1.47503 808.317 1.12836C808.845 0.773026 809.608 0.59536 810.605 0.59536C811.567 0.59536 812.295 0.768693 812.789 1.11536C813.291 1.46203 813.543 1.97336 813.543 2.64936V10.1764C813.543 10.3757 813.369 10.4754 813.023 10.4754C812.676 10.4754 812.503 10.3757 812.503 10.1764V6.65336H808.564V10.1764C808.564 10.3757 808.39 10.4754 808.044 10.4754ZM808.564 2.51936V5.74336H812.503V2.51936C812.503 2.19003 812.334 1.93869 811.996 1.76536C811.666 1.59203 811.181 1.50536 810.54 1.50536C809.898 1.50536 809.409 1.59203 809.071 1.76536C808.733 1.93869 808.564 2.19003 808.564 2.51936Z" fill="#D8F0FF"/>
<path d="M816.138 5.60036H817.269C818.447 5.60036 819.037 5.26236 819.037 4.58636V2.51936C819.037 2.19003 818.885 1.93869 818.582 1.76536C818.278 1.59203 817.836 1.50536 817.256 1.50536C816.077 1.50536 815.488 1.84336 815.488 2.51936V10.1764C815.488 10.3757 815.314 10.4754 814.968 10.4754C814.621 10.4754 814.448 10.3757 814.448 10.1764V2.64936C814.448 1.98203 814.686 1.47503 815.163 1.12836C815.648 0.773026 816.346 0.59536 817.256 0.59536C818.166 0.59536 818.863 0.773026 819.349 1.12836C819.834 1.47503 820.077 1.98203 820.077 2.64936V4.45636C820.077 4.85503 819.986 5.18003 819.804 5.43136C819.63 5.67403 819.34 5.85169 818.933 5.96436C819.054 6.05103 819.149 6.16803 819.219 6.31536C819.288 6.46269 819.353 6.64036 819.414 6.84836L820.337 10.2154C820.354 10.3887 820.189 10.4754 819.843 10.4754C819.548 10.4754 819.379 10.3757 819.336 10.1764L818.517 7.21236C818.465 7.00436 818.4 6.85269 818.322 6.75736C818.252 6.65336 818.14 6.58836 817.984 6.56236C817.828 6.52769 817.594 6.51036 817.282 6.51036H816.138C815.964 6.51036 815.878 6.35869 815.878 6.05536C815.878 5.75203 815.964 5.60036 816.138 5.60036Z" fill="#D8F0FF"/>
<path d="M821.774 2.51936V8.68136C821.774 9.01069 821.939 9.26203 822.268 9.43536C822.606 9.60869 823.091 9.69536 823.724 9.69536C824.963 9.69536 825.583 9.35736 825.583 8.68136V7.74536C825.583 7.54603 825.756 7.44636 826.103 7.44636C826.45 7.44636 826.623 7.54603 826.623 7.74536V8.55136C826.623 9.21869 826.376 9.73003 825.882 10.0854C825.397 10.432 824.677 10.6054 823.724 10.6054C822.753 10.6054 822.012 10.4277 821.501 10.0724C820.99 9.71703 820.734 9.21003 820.734 8.55136V2.64936C820.734 1.98203 820.99 1.47503 821.501 1.12836C822.012 0.773026 822.753 0.59536 823.724 0.59536C824.677 0.59536 825.397 0.773026 825.882 1.12836C826.376 1.47503 826.623 1.98203 826.623 2.64936V3.45536C826.623 3.65469 826.45 3.75436 826.103 3.75436C825.756 3.75436 825.583 3.65469 825.583 3.45536V2.51936C825.583 1.84336 824.963 1.50536 823.724 1.50536C823.091 1.50536 822.606 1.59203 822.268 1.76536C821.939 1.93869 821.774 2.19003 821.774 2.51936Z" fill="#D8F0FF"/>
<path d="M827.661 10.4754C827.314 10.4754 827.141 10.3757 827.141 10.1764V2.64936C827.141 1.98203 827.405 1.47503 827.934 1.12836C828.462 0.773026 829.225 0.59536 830.222 0.59536C831.184 0.59536 831.912 0.768693 832.406 1.11536C832.908 1.46203 833.16 1.97336 833.16 2.64936V10.1764C833.16 10.3757 832.986 10.4754 832.64 10.4754C832.293 10.4754 832.12 10.3757 832.12 10.1764V6.65336H828.181V10.1764C828.181 10.3757 828.007 10.4754 827.661 10.4754ZM828.181 2.51936V5.74336H832.12V2.51936C832.12 2.19003 831.951 1.93869 831.613 1.76536C831.283 1.59203 830.798 1.50536 830.157 1.50536C829.515 1.50536 829.026 1.59203 828.688 1.76536C828.35 1.93869 828.181 2.19003 828.181 2.51936Z" fill="#D8F0FF"/>
<path d="M834.065 9.43536V1.76536C834.065 1.36669 834.112 1.10669 834.208 0.98536C834.312 0.85536 834.524 0.79036 834.845 0.79036H837.549C838.441 0.79036 839.087 0.955027 839.486 1.28436C839.884 1.60503 840.084 2.12503 840.084 2.84436V8.35636C840.084 9.07569 839.884 9.60003 839.486 9.92936C839.087 10.25 838.441 10.4104 837.549 10.4104H834.845C834.524 10.4104 834.312 10.3497 834.208 10.2284C834.112 10.0984 834.065 9.83403 834.065 9.43536ZM835.105 9.50036H837.549C838.112 9.50036 838.502 9.42669 838.719 9.27936C838.935 9.12336 839.044 8.85903 839.044 8.48636V2.71436C839.044 2.33303 838.935 2.06869 838.719 1.92136C838.502 1.77403 838.112 1.70036 837.549 1.70036H835.105V9.50036Z" fill="#D8F0FF"/>
<path d="M843.875 0.59536C844.707 0.59536 845.344 0.773026 845.786 1.12836C846.236 1.48369 846.462 1.99069 846.462 2.64936V2.84436C846.462 3.04369 846.288 3.14336 845.942 3.14336C845.595 3.14336 845.422 3.04369 845.422 2.84436V2.51936C845.422 1.84336 844.884 1.50536 843.81 1.50536C843.229 1.50536 842.787 1.59203 842.484 1.76536C842.18 1.93869 842.029 2.19003 842.029 2.51936V3.85836C842.029 4.62103 842.497 5.00236 843.433 5.00236H844.408C844.581 5.00236 844.668 5.15403 844.668 5.45736C844.668 5.76069 844.581 5.91236 844.408 5.91236H843.303C842.367 5.91236 841.899 6.29369 841.899 7.05636V8.68136C841.899 9.01069 842.059 9.26203 842.38 9.43536C842.709 9.60869 843.177 9.69536 843.784 9.69536C844.98 9.69536 845.578 9.35736 845.578 8.68136V7.74536C845.578 7.54603 845.751 7.44636 846.098 7.44636C846.444 7.44636 846.618 7.54603 846.618 7.74536V8.55136C846.618 9.21869 846.371 9.73003 845.877 10.0854C845.391 10.432 844.685 10.6054 843.758 10.6054C842.822 10.6054 842.102 10.4277 841.6 10.0724C841.106 9.71703 840.859 9.21003 840.859 8.55136V7.05636C840.859 6.59703 840.95 6.23736 841.132 5.97736C841.322 5.71736 841.63 5.53969 842.055 5.44436C841.673 5.33169 841.4 5.14969 841.236 4.89836C841.071 4.63836 840.989 4.29169 840.989 3.85836V2.64936C840.989 1.98203 841.236 1.47503 841.73 1.12836C842.224 0.773026 842.939 0.59536 843.875 0.59536Z" fill="#D8F0FF"/>
<path d="M856.935 10.1764V1.70036C856.718 1.70036 856.554 1.71769 856.441 1.75236C856.337 1.77836 856.259 1.83903 856.207 1.93436C856.164 2.02969 856.116 2.18569 856.064 2.40236L854.361 9.14936C854.309 9.34869 854.14 9.44836 853.854 9.44836C853.568 9.44836 853.399 9.34869 853.347 9.14936L851.644 2.40236C851.592 2.18569 851.54 2.02969 851.488 1.93436C851.445 1.83036 851.371 1.76536 851.267 1.73936C851.163 1.71336 850.998 1.70036 850.773 1.70036V10.1764C850.773 10.3757 850.6 10.4754 850.253 10.4754C849.906 10.4754 849.733 10.3757 849.733 10.1764V1.72636C849.733 1.34503 849.785 1.09369 849.889 0.97236C849.993 0.851027 850.201 0.79036 850.513 0.79036H850.799C851.215 0.79036 851.531 0.820694 851.748 0.88136C851.973 0.93336 852.138 1.05036 852.242 1.23236C852.355 1.40569 852.454 1.67436 852.541 2.03836L853.854 7.43336L855.167 2.03836C855.254 1.67436 855.349 1.40569 855.453 1.23236C855.566 1.05036 855.73 0.93336 855.947 0.88136C856.172 0.820694 856.493 0.79036 856.909 0.79036H857.195C857.516 0.79036 857.724 0.85536 857.819 0.98536C857.923 1.10669 857.975 1.36669 857.975 1.76536V10.1764C857.975 10.3757 857.802 10.4754 857.455 10.4754C857.108 10.4754 856.935 10.3757 856.935 10.1764Z" fill="#D8F0FF"/>
<path d="M859.399 10.4754C859.052 10.4754 858.879 10.3757 858.879 10.1764V2.64936C858.879 1.98203 859.143 1.47503 859.672 1.12836C860.2 0.773026 860.963 0.59536 861.96 0.59536C862.922 0.59536 863.65 0.768693 864.144 1.11536C864.646 1.46203 864.898 1.97336 864.898 2.64936V10.1764C864.898 10.3757 864.724 10.4754 864.378 10.4754C864.031 10.4754 863.858 10.3757 863.858 10.1764V6.65336H859.919V10.1764C859.919 10.3757 859.745 10.4754 859.399 10.4754ZM859.919 2.51936V5.74336H863.858V2.51936C863.858 2.19003 863.689 1.93869 863.351 1.76536C863.021 1.59203 862.536 1.50536 861.895 1.50536C861.253 1.50536 860.764 1.59203 860.426 1.76536C860.088 1.93869 859.919 2.19003 859.919 2.51936Z" fill="#D8F0FF"/>
<path d="M866.713 2.51936V8.68136C866.713 9.01069 866.877 9.26203 867.207 9.43536C867.545 9.60869 868.03 9.69536 868.663 9.69536C869.902 9.69536 870.522 9.35736 870.522 8.68136V7.74536C870.522 7.54603 870.695 7.44636 871.042 7.44636C871.388 7.44636 871.562 7.54603 871.562 7.74536V8.55136C871.562 9.21869 871.315 9.73003 870.821 10.0854C870.335 10.432 869.616 10.6054 868.663 10.6054C867.692 10.6054 866.951 10.4277 866.44 10.0724C865.929 9.71703 865.673 9.21003 865.673 8.55136V2.64936C865.673 1.98203 865.929 1.47503 866.44 1.12836C866.951 0.773026 867.692 0.59536 868.663 0.59536C869.616 0.59536 870.335 0.773026 870.821 1.12836C871.315 1.47503 871.562 1.98203 871.562 2.64936V3.45536C871.562 3.65469 871.388 3.75436 871.042 3.75436C870.695 3.75436 870.522 3.65469 870.522 3.45536V2.51936C870.522 1.84336 869.902 1.50536 868.663 1.50536C868.03 1.50536 867.545 1.59203 867.207 1.76536C866.877 1.93869 866.713 2.19003 866.713 2.51936Z" fill="#D8F0FF"/>
<path d="M878.098 1.02436V10.1764C878.098 10.3757 877.925 10.4754 877.578 10.4754C877.232 10.4754 877.058 10.3757 877.058 10.1764V6.13336H873.119V10.1764C873.119 10.3757 872.946 10.4754 872.599 10.4754C872.253 10.4754 872.079 10.3757 872.079 10.1764V1.02436C872.079 0.825026 872.253 0.72536 872.599 0.72536C872.946 0.72536 873.119 0.825026 873.119 1.02436V5.22336H877.058V1.02436C877.058 0.825026 877.232 0.72536 877.578 0.72536C877.925 0.72536 878.098 0.825026 878.098 1.02436Z" fill="#D8F0FF"/>
<path d="M879.653 10.4754C879.307 10.4754 879.133 10.3757 879.133 10.1764V1.02436C879.133 0.825026 879.307 0.72536 879.653 0.72536C880 0.72536 880.173 0.825026 880.173 1.02436V10.1764C880.173 10.3757 880 10.4754 879.653 10.4754Z" fill="#D8F0FF"/>
<path d="M884.818 9.22736L883.128 2.40236C883.076 2.18569 883.024 2.02969 882.972 1.93436C882.929 1.83036 882.855 1.76536 882.751 1.73936C882.647 1.71336 882.483 1.70036 882.257 1.70036V10.1764C882.257 10.3757 882.084 10.4754 881.737 10.4754C881.391 10.4754 881.217 10.3757 881.217 10.1764V1.72636C881.217 1.34503 881.269 1.09369 881.373 0.97236C881.477 0.851027 881.685 0.79036 881.997 0.79036H882.283C882.699 0.79036 883.016 0.820694 883.232 0.88136C883.449 0.93336 883.614 1.05036 883.726 1.23236C883.839 1.40569 883.939 1.67436 884.025 2.03836L885.715 8.86336C885.767 9.07136 885.815 9.22736 885.858 9.33136C885.91 9.42669 885.988 9.49169 886.092 9.52636C886.205 9.55236 886.37 9.56536 886.586 9.56536V1.08936C886.586 0.890027 886.76 0.79036 887.106 0.79036C887.453 0.79036 887.626 0.890027 887.626 1.08936V9.50036C887.626 9.89903 887.574 10.1634 887.47 10.2934C887.375 10.4147 887.167 10.4754 886.846 10.4754H886.56C886.153 10.4754 885.837 10.4494 885.611 10.3974C885.395 10.3367 885.23 10.2154 885.117 10.0334C885.013 9.85136 884.914 9.58269 884.818 9.22736Z" fill="#D8F0FF"/>
<path d="M891.421 0.59536C892.253 0.59536 892.89 0.773026 893.332 1.12836C893.783 1.48369 894.008 1.99069 894.008 2.64936V2.84436C894.008 3.04369 893.835 3.14336 893.488 3.14336C893.141 3.14336 892.968 3.04369 892.968 2.84436V2.51936C892.968 1.84336 892.431 1.50536 891.356 1.50536C890.775 1.50536 890.333 1.59203 890.03 1.76536C889.727 1.93869 889.575 2.19003 889.575 2.51936V3.85836C889.575 4.62103 890.043 5.00236 890.979 5.00236H891.954C892.127 5.00236 892.214 5.15403 892.214 5.45736C892.214 5.76069 892.127 5.91236 891.954 5.91236H890.849C889.913 5.91236 889.445 6.29369 889.445 7.05636V8.68136C889.445 9.01069 889.605 9.26203 889.926 9.43536C890.255 9.60869 890.723 9.69536 891.33 9.69536C892.526 9.69536 893.124 9.35736 893.124 8.68136V7.74536C893.124 7.54603 893.297 7.44636 893.644 7.44636C893.991 7.44636 894.164 7.54603 894.164 7.74536V8.55136C894.164 9.21869 893.917 9.73003 893.423 10.0854C892.938 10.432 892.231 10.6054 891.304 10.6054C890.368 10.6054 889.649 10.4277 889.146 10.0724C888.652 9.71703 888.405 9.21003 888.405 8.55136V7.05636C888.405 6.59703 888.496 6.23736 888.678 5.97736C888.869 5.71736 889.176 5.53969 889.601 5.44436C889.22 5.33169 888.947 5.14969 888.782 4.89836C888.617 4.63836 888.535 4.29169 888.535 3.85836V2.64936C888.535 1.98203 888.782 1.47503 889.276 1.12836C889.77 0.773026 890.485 0.59536 891.421 0.59536Z" fill="#D8F0FF"/>
</g>
<g id="Text5">
<path d="M317.699 5.60036H318.83C320.009 5.60036 320.598 5.26236 320.598 4.58636V2.51936C320.598 2.19003 320.447 1.93869 320.143 1.76536C319.84 1.59203 319.398 1.50536 318.817 1.50536C317.639 1.50536 317.049 1.84336 317.049 2.51936V10.1764C317.049 10.3757 316.876 10.4754 316.529 10.4754C316.183 10.4754 316.009 10.3757 316.009 10.1764V2.64936C316.009 1.98203 316.248 1.47503 316.724 1.12836C317.21 0.773026 317.907 0.59536 318.817 0.59536C319.727 0.59536 320.425 0.773026 320.91 1.12836C321.396 1.47503 321.638 1.98203 321.638 2.64936V4.45636C321.638 4.85503 321.547 5.18003 321.365 5.43136C321.192 5.67403 320.902 5.85169 320.494 5.96436C320.616 6.05103 320.711 6.16803 320.78 6.31536C320.85 6.46269 320.915 6.64036 320.975 6.84836L321.898 10.2154C321.916 10.3887 321.751 10.4754 321.404 10.4754C321.11 10.4754 320.941 10.3757 320.897 10.1764L320.078 7.21236C320.026 7.00436 319.961 6.85269 319.883 6.75736C319.814 6.65336 319.701 6.58836 319.545 6.56236C319.389 6.52769 319.155 6.51036 318.843 6.51036H317.699C317.526 6.51036 317.439 6.35869 317.439 6.05536C317.439 5.75203 317.526 5.60036 317.699 5.60036Z" fill="#D8F0FF"/>
<path d="M324.115 5.86036H325.246C326.425 5.86036 327.014 5.52236 327.014 4.84636V2.51936C327.014 2.19003 326.863 1.93869 326.559 1.76536C326.256 1.59203 325.814 1.50536 325.233 1.50536C324.055 1.50536 323.465 1.84336 323.465 2.51936V10.1764C323.465 10.3757 323.292 10.4754 322.945 10.4754C322.599 10.4754 322.425 10.3757 322.425 10.1764V2.64936C322.425 1.98203 322.664 1.47503 323.14 1.12836C323.626 0.773026 324.323 0.59536 325.233 0.59536C326.143 0.59536 326.841 0.773026 327.326 1.12836C327.812 1.47503 328.054 1.98203 328.054 2.64936V4.71636C328.054 5.37503 327.812 5.88203 327.326 6.23736C326.85 6.59269 326.156 6.77036 325.246 6.77036H324.115C323.942 6.77036 323.855 6.61869 323.855 6.31536C323.855 6.01203 323.942 5.86036 324.115 5.86036Z" fill="#D8F0FF"/>
<path d="M329.098 10.4754C328.751 10.4754 328.578 10.3757 328.578 10.1764V1.02436C328.578 0.825026 328.751 0.72536 329.098 0.72536C329.445 0.72536 329.618 0.825026 329.618 1.02436V10.1764C329.618 10.3757 329.445 10.4754 329.098 10.4754Z" fill="#D8F0FF"/>
<path d="M334.044 10.4754C333.697 10.4754 333.524 10.3757 333.524 10.1764V2.64936C333.524 1.98203 333.788 1.47503 334.317 1.12836C334.845 0.773026 335.608 0.59536 336.605 0.59536C337.567 0.59536 338.295 0.768693 338.789 1.11536C339.291 1.46203 339.543 1.97336 339.543 2.64936V10.1764C339.543 10.3757 339.369 10.4754 339.023 10.4754C338.676 10.4754 338.503 10.3757 338.503 10.1764V6.65336H334.564V10.1764C334.564 10.3757 334.39 10.4754 334.044 10.4754ZM334.564 2.51936V5.74336H338.503V2.51936C338.503 2.19003 338.334 1.93869 337.996 1.76536C337.666 1.59203 337.181 1.50536 336.54 1.50536C335.898 1.50536 335.409 1.59203 335.071 1.76536C334.733 1.93869 334.564 2.19003 334.564 2.51936Z" fill="#D8F0FF"/>
<path d="M342.138 5.60036H343.269C344.447 5.60036 345.037 5.26236 345.037 4.58636V2.51936C345.037 2.19003 344.885 1.93869 344.582 1.76536C344.278 1.59203 343.836 1.50536 343.256 1.50536C342.077 1.50536 341.488 1.84336 341.488 2.51936V10.1764C341.488 10.3757 341.314 10.4754 340.968 10.4754C340.621 10.4754 340.448 10.3757 340.448 10.1764V2.64936C340.448 1.98203 340.686 1.47503 341.163 1.12836C341.648 0.773026 342.346 0.59536 343.256 0.59536C344.166 0.59536 344.863 0.773026 345.349 1.12836C345.834 1.47503 346.077 1.98203 346.077 2.64936V4.45636C346.077 4.85503 345.986 5.18003 345.804 5.43136C345.63 5.67403 345.34 5.85169 344.933 5.96436C345.054 6.05103 345.149 6.16803 345.219 6.31536C345.288 6.46269 345.353 6.64036 345.414 6.84836L346.337 10.2154C346.354 10.3887 346.189 10.4754 345.843 10.4754C345.548 10.4754 345.379 10.3757 345.336 10.1764L344.517 7.21236C344.465 7.00436 344.4 6.85269 344.322 6.75736C344.252 6.65336 344.14 6.58836 343.984 6.56236C343.828 6.52769 343.594 6.51036 343.282 6.51036H342.138C341.964 6.51036 341.878 6.35869 341.878 6.05536C341.878 5.75203 341.964 5.60036 342.138 5.60036Z" fill="#D8F0FF"/>
<path d="M347.774 2.51936V8.68136C347.774 9.01069 347.939 9.26203 348.268 9.43536C348.606 9.60869 349.091 9.69536 349.724 9.69536C350.963 9.69536 351.583 9.35736 351.583 8.68136V7.74536C351.583 7.54603 351.756 7.44636 352.103 7.44636C352.45 7.44636 352.623 7.54603 352.623 7.74536V8.55136C352.623 9.21869 352.376 9.73003 351.882 10.0854C351.397 10.432 350.677 10.6054 349.724 10.6054C348.753 10.6054 348.012 10.4277 347.501 10.0724C346.99 9.71703 346.734 9.21003 346.734 8.55136V2.64936C346.734 1.98203 346.99 1.47503 347.501 1.12836C348.012 0.773026 348.753 0.59536 349.724 0.59536C350.677 0.59536 351.397 0.773026 351.882 1.12836C352.376 1.47503 352.623 1.98203 352.623 2.64936V3.45536C352.623 3.65469 352.45 3.75436 352.103 3.75436C351.756 3.75436 351.583 3.65469 351.583 3.45536V2.51936C351.583 1.84336 350.963 1.50536 349.724 1.50536C349.091 1.50536 348.606 1.59203 348.268 1.76536C347.939 1.93869 347.774 2.19003 347.774 2.51936Z" fill="#D8F0FF"/>
<path d="M353.661 10.4754C353.314 10.4754 353.141 10.3757 353.141 10.1764V2.64936C353.141 1.98203 353.405 1.47503 353.934 1.12836C354.462 0.773026 355.225 0.59536 356.222 0.59536C357.184 0.59536 357.912 0.768693 358.406 1.11536C358.908 1.46203 359.16 1.97336 359.16 2.64936V10.1764C359.16 10.3757 358.986 10.4754 358.64 10.4754C358.293 10.4754 358.12 10.3757 358.12 10.1764V6.65336H354.181V10.1764C354.181 10.3757 354.007 10.4754 353.661 10.4754ZM354.181 2.51936V5.74336H358.12V2.51936C358.12 2.19003 357.951 1.93869 357.613 1.76536C357.283 1.59203 356.798 1.50536 356.157 1.50536C355.515 1.50536 355.026 1.59203 354.688 1.76536C354.35 1.93869 354.181 2.19003 354.181 2.51936Z" fill="#D8F0FF"/>
<path d="M360.065 9.43536V1.76536C360.065 1.36669 360.112 1.10669 360.208 0.98536C360.312 0.85536 360.524 0.79036 360.845 0.79036H363.549C364.441 0.79036 365.087 0.955027 365.486 1.28436C365.884 1.60503 366.084 2.12503 366.084 2.84436V8.35636C366.084 9.07569 365.884 9.60003 365.486 9.92936C365.087 10.25 364.441 10.4104 363.549 10.4104H360.845C360.524 10.4104 360.312 10.3497 360.208 10.2284C360.112 10.0984 360.065 9.83403 360.065 9.43536ZM361.105 9.50036H363.549C364.112 9.50036 364.502 9.42669 364.719 9.27936C364.935 9.12336 365.044 8.85903 365.044 8.48636V2.71436C365.044 2.33303 364.935 2.06869 364.719 1.92136C364.502 1.77403 364.112 1.70036 363.549 1.70036H361.105V9.50036Z" fill="#D8F0FF"/>
<path d="M369.875 0.59536C370.707 0.59536 371.344 0.773026 371.786 1.12836C372.236 1.48369 372.462 1.99069 372.462 2.64936V2.84436C372.462 3.04369 372.288 3.14336 371.942 3.14336C371.595 3.14336 371.422 3.04369 371.422 2.84436V2.51936C371.422 1.84336 370.884 1.50536 369.81 1.50536C369.229 1.50536 368.787 1.59203 368.484 1.76536C368.18 1.93869 368.029 2.19003 368.029 2.51936V3.85836C368.029 4.62103 368.497 5.00236 369.433 5.00236H370.408C370.581 5.00236 370.668 5.15403 370.668 5.45736C370.668 5.76069 370.581 5.91236 370.408 5.91236H369.303C368.367 5.91236 367.899 6.29369 367.899 7.05636V8.68136C367.899 9.01069 368.059 9.26203 368.38 9.43536C368.709 9.60869 369.177 9.69536 369.784 9.69536C370.98 9.69536 371.578 9.35736 371.578 8.68136V7.74536C371.578 7.54603 371.751 7.44636 372.098 7.44636C372.444 7.44636 372.618 7.54603 372.618 7.74536V8.55136C372.618 9.21869 372.371 9.73003 371.877 10.0854C371.391 10.432 370.685 10.6054 369.758 10.6054C368.822 10.6054 368.102 10.4277 367.6 10.0724C367.106 9.71703 366.859 9.21003 366.859 8.55136V7.05636C366.859 6.59703 366.95 6.23736 367.132 5.97736C367.322 5.71736 367.63 5.53969 368.055 5.44436C367.673 5.33169 367.4 5.14969 367.236 4.89836C367.071 4.63836 366.989 4.29169 366.989 3.85836V2.64936C366.989 1.98203 367.236 1.47503 367.73 1.12836C368.224 0.773026 368.939 0.59536 369.875 0.59536Z" fill="#D8F0FF"/>
<path d="M382.935 10.1764V1.70036C382.718 1.70036 382.554 1.71769 382.441 1.75236C382.337 1.77836 382.259 1.83903 382.207 1.93436C382.164 2.02969 382.116 2.18569 382.064 2.40236L380.361 9.14936C380.309 9.34869 380.14 9.44836 379.854 9.44836C379.568 9.44836 379.399 9.34869 379.347 9.14936L377.644 2.40236C377.592 2.18569 377.54 2.02969 377.488 1.93436C377.445 1.83036 377.371 1.76536 377.267 1.73936C377.163 1.71336 376.998 1.70036 376.773 1.70036V10.1764C376.773 10.3757 376.6 10.4754 376.253 10.4754C375.906 10.4754 375.733 10.3757 375.733 10.1764V1.72636C375.733 1.34503 375.785 1.09369 375.889 0.97236C375.993 0.851027 376.201 0.79036 376.513 0.79036H376.799C377.215 0.79036 377.531 0.820694 377.748 0.88136C377.973 0.93336 378.138 1.05036 378.242 1.23236C378.355 1.40569 378.454 1.67436 378.541 2.03836L379.854 7.43336L381.167 2.03836C381.254 1.67436 381.349 1.40569 381.453 1.23236C381.566 1.05036 381.73 0.93336 381.947 0.88136C382.172 0.820694 382.493 0.79036 382.909 0.79036H383.195C383.516 0.79036 383.724 0.85536 383.819 0.98536C383.923 1.10669 383.975 1.36669 383.975 1.76536V10.1764C383.975 10.3757 383.802 10.4754 383.455 10.4754C383.108 10.4754 382.935 10.3757 382.935 10.1764Z" fill="#D8F0FF"/>
<path d="M385.399 10.4754C385.052 10.4754 384.879 10.3757 384.879 10.1764V2.64936C384.879 1.98203 385.143 1.47503 385.672 1.12836C386.2 0.773026 386.963 0.59536 387.96 0.59536C388.922 0.59536 389.65 0.768693 390.144 1.11536C390.646 1.46203 390.898 1.97336 390.898 2.64936V10.1764C390.898 10.3757 390.724 10.4754 390.378 10.4754C390.031 10.4754 389.858 10.3757 389.858 10.1764V6.65336H385.919V10.1764C385.919 10.3757 385.745 10.4754 385.399 10.4754ZM385.919 2.51936V5.74336H389.858V2.51936C389.858 2.19003 389.689 1.93869 389.351 1.76536C389.021 1.59203 388.536 1.50536 387.895 1.50536C387.253 1.50536 386.764 1.59203 386.426 1.76536C386.088 1.93869 385.919 2.19003 385.919 2.51936Z" fill="#D8F0FF"/>
<path d="M392.713 2.51936V8.68136C392.713 9.01069 392.877 9.26203 393.207 9.43536C393.545 9.60869 394.03 9.69536 394.663 9.69536C395.902 9.69536 396.522 9.35736 396.522 8.68136V7.74536C396.522 7.54603 396.695 7.44636 397.042 7.44636C397.388 7.44636 397.562 7.54603 397.562 7.74536V8.55136C397.562 9.21869 397.315 9.73003 396.821 10.0854C396.335 10.432 395.616 10.6054 394.663 10.6054C393.692 10.6054 392.951 10.4277 392.44 10.0724C391.929 9.71703 391.673 9.21003 391.673 8.55136V2.64936C391.673 1.98203 391.929 1.47503 392.44 1.12836C392.951 0.773026 393.692 0.59536 394.663 0.59536C395.616 0.59536 396.335 0.773026 396.821 1.12836C397.315 1.47503 397.562 1.98203 397.562 2.64936V3.45536C397.562 3.65469 397.388 3.75436 397.042 3.75436C396.695 3.75436 396.522 3.65469 396.522 3.45536V2.51936C396.522 1.84336 395.902 1.50536 394.663 1.50536C394.03 1.50536 393.545 1.59203 393.207 1.76536C392.877 1.93869 392.713 2.19003 392.713 2.51936Z" fill="#D8F0FF"/>
<path d="M404.098 1.02436V10.1764C404.098 10.3757 403.925 10.4754 403.578 10.4754C403.232 10.4754 403.058 10.3757 403.058 10.1764V6.13336H399.119V10.1764C399.119 10.3757 398.946 10.4754 398.599 10.4754C398.253 10.4754 398.079 10.3757 398.079 10.1764V1.02436C398.079 0.825026 398.253 0.72536 398.599 0.72536C398.946 0.72536 399.119 0.825026 399.119 1.02436V5.22336H403.058V1.02436C403.058 0.825026 403.232 0.72536 403.578 0.72536C403.925 0.72536 404.098 0.825026 404.098 1.02436Z" fill="#D8F0FF"/>
<path d="M405.653 10.4754C405.307 10.4754 405.133 10.3757 405.133 10.1764V1.02436C405.133 0.825026 405.307 0.72536 405.653 0.72536C406 0.72536 406.173 0.825026 406.173 1.02436V10.1764C406.173 10.3757 406 10.4754 405.653 10.4754Z" fill="#D8F0FF"/>
<path d="M410.818 9.22736L409.128 2.40236C409.076 2.18569 409.024 2.02969 408.972 1.93436C408.929 1.83036 408.855 1.76536 408.751 1.73936C408.647 1.71336 408.483 1.70036 408.257 1.70036V10.1764C408.257 10.3757 408.084 10.4754 407.737 10.4754C407.391 10.4754 407.217 10.3757 407.217 10.1764V1.72636C407.217 1.34503 407.269 1.09369 407.373 0.97236C407.477 0.851027 407.685 0.79036 407.997 0.79036H408.283C408.699 0.79036 409.016 0.820694 409.232 0.88136C409.449 0.93336 409.614 1.05036 409.726 1.23236C409.839 1.40569 409.939 1.67436 410.025 2.03836L411.715 8.86336C411.767 9.07136 411.815 9.22736 411.858 9.33136C411.91 9.42669 411.988 9.49169 412.092 9.52636C412.205 9.55236 412.37 9.56536 412.586 9.56536V1.08936C412.586 0.890027 412.76 0.79036 413.106 0.79036C413.453 0.79036 413.626 0.890027 413.626 1.08936V9.50036C413.626 9.89903 413.574 10.1634 413.47 10.2934C413.375 10.4147 413.167 10.4754 412.846 10.4754H412.56C412.153 10.4754 411.837 10.4494 411.611 10.3974C411.395 10.3367 411.23 10.2154 411.117 10.0334C411.013 9.85136 410.914 9.58269 410.818 9.22736Z" fill="#D8F0FF"/>
<path d="M417.421 0.59536C418.253 0.59536 418.89 0.773026 419.332 1.12836C419.783 1.48369 420.008 1.99069 420.008 2.64936V2.84436C420.008 3.04369 419.835 3.14336 419.488 3.14336C419.141 3.14336 418.968 3.04369 418.968 2.84436V2.51936C418.968 1.84336 418.431 1.50536 417.356 1.50536C416.775 1.50536 416.333 1.59203 416.03 1.76536C415.727 1.93869 415.575 2.19003 415.575 2.51936V3.85836C415.575 4.62103 416.043 5.00236 416.979 5.00236H417.954C418.127 5.00236 418.214 5.15403 418.214 5.45736C418.214 5.76069 418.127 5.91236 417.954 5.91236H416.849C415.913 5.91236 415.445 6.29369 415.445 7.05636V8.68136C415.445 9.01069 415.605 9.26203 415.926 9.43536C416.255 9.60869 416.723 9.69536 417.33 9.69536C418.526 9.69536 419.124 9.35736 419.124 8.68136V7.74536C419.124 7.54603 419.297 7.44636 419.644 7.44636C419.991 7.44636 420.164 7.54603 420.164 7.74536V8.55136C420.164 9.21869 419.917 9.73003 419.423 10.0854C418.938 10.432 418.231 10.6054 417.304 10.6054C416.368 10.6054 415.649 10.4277 415.146 10.0724C414.652 9.71703 414.405 9.21003 414.405 8.55136V7.05636C414.405 6.59703 414.496 6.23736 414.678 5.97736C414.869 5.71736 415.176 5.53969 415.601 5.44436C415.22 5.33169 414.947 5.14969 414.782 4.89836C414.617 4.63836 414.535 4.29169 414.535 3.85836V2.64936C414.535 1.98203 414.782 1.47503 415.276 1.12836C415.77 0.773026 416.485 0.59536 417.421 0.59536Z" fill="#D8F0FF"/>
</g>
<g id="Text6">
<path d="M475.699 5.60036H476.83C478.009 5.60036 478.598 5.26236 478.598 4.58636V2.51936C478.598 2.19003 478.447 1.93869 478.143 1.76536C477.84 1.59203 477.398 1.50536 476.817 1.50536C475.639 1.50536 475.049 1.84336 475.049 2.51936V10.1764C475.049 10.3757 474.876 10.4754 474.529 10.4754C474.183 10.4754 474.009 10.3757 474.009 10.1764V2.64936C474.009 1.98203 474.248 1.47503 474.724 1.12836C475.21 0.773026 475.907 0.59536 476.817 0.59536C477.727 0.59536 478.425 0.773026 478.91 1.12836C479.396 1.47503 479.638 1.98203 479.638 2.64936V4.45636C479.638 4.85503 479.547 5.18003 479.365 5.43136C479.192 5.67403 478.902 5.85169 478.494 5.96436C478.616 6.05103 478.711 6.16803 478.78 6.31536C478.85 6.46269 478.915 6.64036 478.975 6.84836L479.898 10.2154C479.916 10.3887 479.751 10.4754 479.404 10.4754C479.11 10.4754 478.941 10.3757 478.897 10.1764L478.078 7.21236C478.026 7.00436 477.961 6.85269 477.883 6.75736C477.814 6.65336 477.701 6.58836 477.545 6.56236C477.389 6.52769 477.155 6.51036 476.843 6.51036H475.699C475.526 6.51036 475.439 6.35869 475.439 6.05536C475.439 5.75203 475.526 5.60036 475.699 5.60036Z" fill="#D8F0FF"/>
<path d="M482.115 5.86036H483.246C484.425 5.86036 485.014 5.52236 485.014 4.84636V2.51936C485.014 2.19003 484.863 1.93869 484.559 1.76536C484.256 1.59203 483.814 1.50536 483.233 1.50536C482.055 1.50536 481.465 1.84336 481.465 2.51936V10.1764C481.465 10.3757 481.292 10.4754 480.945 10.4754C480.599 10.4754 480.425 10.3757 480.425 10.1764V2.64936C480.425 1.98203 480.664 1.47503 481.14 1.12836C481.626 0.773026 482.323 0.59536 483.233 0.59536C484.143 0.59536 484.841 0.773026 485.326 1.12836C485.812 1.47503 486.054 1.98203 486.054 2.64936V4.71636C486.054 5.37503 485.812 5.88203 485.326 6.23736C484.85 6.59269 484.156 6.77036 483.246 6.77036H482.115C481.942 6.77036 481.855 6.61869 481.855 6.31536C481.855 6.01203 481.942 5.86036 482.115 5.86036Z" fill="#D8F0FF"/>
<path d="M487.098 10.4754C486.751 10.4754 486.578 10.3757 486.578 10.1764V1.02436C486.578 0.825026 486.751 0.72536 487.098 0.72536C487.445 0.72536 487.618 0.825026 487.618 1.02436V10.1764C487.618 10.3757 487.445 10.4754 487.098 10.4754Z" fill="#D8F0FF"/>
<path d="M492.044 10.4754C491.697 10.4754 491.524 10.3757 491.524 10.1764V2.64936C491.524 1.98203 491.788 1.47503 492.317 1.12836C492.845 0.773026 493.608 0.59536 494.605 0.59536C495.567 0.59536 496.295 0.768693 496.789 1.11536C497.291 1.46203 497.543 1.97336 497.543 2.64936V10.1764C497.543 10.3757 497.369 10.4754 497.023 10.4754C496.676 10.4754 496.503 10.3757 496.503 10.1764V6.65336H492.564V10.1764C492.564 10.3757 492.39 10.4754 492.044 10.4754ZM492.564 2.51936V5.74336H496.503V2.51936C496.503 2.19003 496.334 1.93869 495.996 1.76536C495.666 1.59203 495.181 1.50536 494.54 1.50536C493.898 1.50536 493.409 1.59203 493.071 1.76536C492.733 1.93869 492.564 2.19003 492.564 2.51936Z" fill="#D8F0FF"/>
<path d="M500.138 5.60036H501.269C502.447 5.60036 503.037 5.26236 503.037 4.58636V2.51936C503.037 2.19003 502.885 1.93869 502.582 1.76536C502.278 1.59203 501.836 1.50536 501.256 1.50536C500.077 1.50536 499.488 1.84336 499.488 2.51936V10.1764C499.488 10.3757 499.314 10.4754 498.968 10.4754C498.621 10.4754 498.448 10.3757 498.448 10.1764V2.64936C498.448 1.98203 498.686 1.47503 499.163 1.12836C499.648 0.773026 500.346 0.59536 501.256 0.59536C502.166 0.59536 502.863 0.773026 503.349 1.12836C503.834 1.47503 504.077 1.98203 504.077 2.64936V4.45636C504.077 4.85503 503.986 5.18003 503.804 5.43136C503.63 5.67403 503.34 5.85169 502.933 5.96436C503.054 6.05103 503.149 6.16803 503.219 6.31536C503.288 6.46269 503.353 6.64036 503.414 6.84836L504.337 10.2154C504.354 10.3887 504.189 10.4754 503.843 10.4754C503.548 10.4754 503.379 10.3757 503.336 10.1764L502.517 7.21236C502.465 7.00436 502.4 6.85269 502.322 6.75736C502.252 6.65336 502.14 6.58836 501.984 6.56236C501.828 6.52769 501.594 6.51036 501.282 6.51036H500.138C499.964 6.51036 499.878 6.35869 499.878 6.05536C499.878 5.75203 499.964 5.60036 500.138 5.60036Z" fill="#D8F0FF"/>
<path d="M505.774 2.51936V8.68136C505.774 9.01069 505.939 9.26203 506.268 9.43536C506.606 9.60869 507.091 9.69536 507.724 9.69536C508.963 9.69536 509.583 9.35736 509.583 8.68136V7.74536C509.583 7.54603 509.756 7.44636 510.103 7.44636C510.45 7.44636 510.623 7.54603 510.623 7.74536V8.55136C510.623 9.21869 510.376 9.73003 509.882 10.0854C509.397 10.432 508.677 10.6054 507.724 10.6054C506.753 10.6054 506.012 10.4277 505.501 10.0724C504.99 9.71703 504.734 9.21003 504.734 8.55136V2.64936C504.734 1.98203 504.99 1.47503 505.501 1.12836C506.012 0.773026 506.753 0.59536 507.724 0.59536C508.677 0.59536 509.397 0.773026 509.882 1.12836C510.376 1.47503 510.623 1.98203 510.623 2.64936V3.45536C510.623 3.65469 510.45 3.75436 510.103 3.75436C509.756 3.75436 509.583 3.65469 509.583 3.45536V2.51936C509.583 1.84336 508.963 1.50536 507.724 1.50536C507.091 1.50536 506.606 1.59203 506.268 1.76536C505.939 1.93869 505.774 2.19003 505.774 2.51936Z" fill="#D8F0FF"/>
<path d="M511.661 10.4754C511.314 10.4754 511.141 10.3757 511.141 10.1764V2.64936C511.141 1.98203 511.405 1.47503 511.934 1.12836C512.462 0.773026 513.225 0.59536 514.222 0.59536C515.184 0.59536 515.912 0.768693 516.406 1.11536C516.908 1.46203 517.16 1.97336 517.16 2.64936V10.1764C517.16 10.3757 516.986 10.4754 516.64 10.4754C516.293 10.4754 516.12 10.3757 516.12 10.1764V6.65336H512.181V10.1764C512.181 10.3757 512.007 10.4754 511.661 10.4754ZM512.181 2.51936V5.74336H516.12V2.51936C516.12 2.19003 515.951 1.93869 515.613 1.76536C515.283 1.59203 514.798 1.50536 514.157 1.50536C513.515 1.50536 513.026 1.59203 512.688 1.76536C512.35 1.93869 512.181 2.19003 512.181 2.51936Z" fill="#D8F0FF"/>
<path d="M518.065 9.43536V1.76536C518.065 1.36669 518.112 1.10669 518.208 0.98536C518.312 0.85536 518.524 0.79036 518.845 0.79036H521.549C522.441 0.79036 523.087 0.955027 523.486 1.28436C523.884 1.60503 524.084 2.12503 524.084 2.84436V8.35636C524.084 9.07569 523.884 9.60003 523.486 9.92936C523.087 10.25 522.441 10.4104 521.549 10.4104H518.845C518.524 10.4104 518.312 10.3497 518.208 10.2284C518.112 10.0984 518.065 9.83403 518.065 9.43536ZM519.105 9.50036H521.549C522.112 9.50036 522.502 9.42669 522.719 9.27936C522.935 9.12336 523.044 8.85903 523.044 8.48636V2.71436C523.044 2.33303 522.935 2.06869 522.719 1.92136C522.502 1.77403 522.112 1.70036 521.549 1.70036H519.105V9.50036Z" fill="#D8F0FF"/>
<path d="M527.875 0.59536C528.707 0.59536 529.344 0.773026 529.786 1.12836C530.236 1.48369 530.462 1.99069 530.462 2.64936V2.84436C530.462 3.04369 530.288 3.14336 529.942 3.14336C529.595 3.14336 529.422 3.04369 529.422 2.84436V2.51936C529.422 1.84336 528.884 1.50536 527.81 1.50536C527.229 1.50536 526.787 1.59203 526.484 1.76536C526.18 1.93869 526.029 2.19003 526.029 2.51936V3.85836C526.029 4.62103 526.497 5.00236 527.433 5.00236H528.408C528.581 5.00236 528.668 5.15403 528.668 5.45736C528.668 5.76069 528.581 5.91236 528.408 5.91236H527.303C526.367 5.91236 525.899 6.29369 525.899 7.05636V8.68136C525.899 9.01069 526.059 9.26203 526.38 9.43536C526.709 9.60869 527.177 9.69536 527.784 9.69536C528.98 9.69536 529.578 9.35736 529.578 8.68136V7.74536C529.578 7.54603 529.751 7.44636 530.098 7.44636C530.444 7.44636 530.618 7.54603 530.618 7.74536V8.55136C530.618 9.21869 530.371 9.73003 529.877 10.0854C529.391 10.432 528.685 10.6054 527.758 10.6054C526.822 10.6054 526.102 10.4277 525.6 10.0724C525.106 9.71703 524.859 9.21003 524.859 8.55136V7.05636C524.859 6.59703 524.95 6.23736 525.132 5.97736C525.322 5.71736 525.63 5.53969 526.055 5.44436C525.673 5.33169 525.4 5.14969 525.236 4.89836C525.071 4.63836 524.989 4.29169 524.989 3.85836V2.64936C524.989 1.98203 525.236 1.47503 525.73 1.12836C526.224 0.773026 526.939 0.59536 527.875 0.59536Z" fill="#D8F0FF"/>
<path d="M540.935 10.1764V1.70036C540.718 1.70036 540.554 1.71769 540.441 1.75236C540.337 1.77836 540.259 1.83903 540.207 1.93436C540.164 2.02969 540.116 2.18569 540.064 2.40236L538.361 9.14936C538.309 9.34869 538.14 9.44836 537.854 9.44836C537.568 9.44836 537.399 9.34869 537.347 9.14936L535.644 2.40236C535.592 2.18569 535.54 2.02969 535.488 1.93436C535.445 1.83036 535.371 1.76536 535.267 1.73936C535.163 1.71336 534.998 1.70036 534.773 1.70036V10.1764C534.773 10.3757 534.6 10.4754 534.253 10.4754C533.906 10.4754 533.733 10.3757 533.733 10.1764V1.72636C533.733 1.34503 533.785 1.09369 533.889 0.97236C533.993 0.851027 534.201 0.79036 534.513 0.79036H534.799C535.215 0.79036 535.531 0.820694 535.748 0.88136C535.973 0.93336 536.138 1.05036 536.242 1.23236C536.355 1.40569 536.454 1.67436 536.541 2.03836L537.854 7.43336L539.167 2.03836C539.254 1.67436 539.349 1.40569 539.453 1.23236C539.566 1.05036 539.73 0.93336 539.947 0.88136C540.172 0.820694 540.493 0.79036 540.909 0.79036H541.195C541.516 0.79036 541.724 0.85536 541.819 0.98536C541.923 1.10669 541.975 1.36669 541.975 1.76536V10.1764C541.975 10.3757 541.802 10.4754 541.455 10.4754C541.108 10.4754 540.935 10.3757 540.935 10.1764Z" fill="#D8F0FF"/>
<path d="M543.399 10.4754C543.052 10.4754 542.879 10.3757 542.879 10.1764V2.64936C542.879 1.98203 543.143 1.47503 543.672 1.12836C544.2 0.773026 544.963 0.59536 545.96 0.59536C546.922 0.59536 547.65 0.768693 548.144 1.11536C548.646 1.46203 548.898 1.97336 548.898 2.64936V10.1764C548.898 10.3757 548.724 10.4754 548.378 10.4754C548.031 10.4754 547.858 10.3757 547.858 10.1764V6.65336H543.919V10.1764C543.919 10.3757 543.745 10.4754 543.399 10.4754ZM543.919 2.51936V5.74336H547.858V2.51936C547.858 2.19003 547.689 1.93869 547.351 1.76536C547.021 1.59203 546.536 1.50536 545.895 1.50536C545.253 1.50536 544.764 1.59203 544.426 1.76536C544.088 1.93869 543.919 2.19003 543.919 2.51936Z" fill="#D8F0FF"/>
<path d="M550.713 2.51936V8.68136C550.713 9.01069 550.877 9.26203 551.207 9.43536C551.545 9.60869 552.03 9.69536 552.663 9.69536C553.902 9.69536 554.522 9.35736 554.522 8.68136V7.74536C554.522 7.54603 554.695 7.44636 555.042 7.44636C555.388 7.44636 555.562 7.54603 555.562 7.74536V8.55136C555.562 9.21869 555.315 9.73003 554.821 10.0854C554.335 10.432 553.616 10.6054 552.663 10.6054C551.692 10.6054 550.951 10.4277 550.44 10.0724C549.929 9.71703 549.673 9.21003 549.673 8.55136V2.64936C549.673 1.98203 549.929 1.47503 550.44 1.12836C550.951 0.773026 551.692 0.59536 552.663 0.59536C553.616 0.59536 554.335 0.773026 554.821 1.12836C555.315 1.47503 555.562 1.98203 555.562 2.64936V3.45536C555.562 3.65469 555.388 3.75436 555.042 3.75436C554.695 3.75436 554.522 3.65469 554.522 3.45536V2.51936C554.522 1.84336 553.902 1.50536 552.663 1.50536C552.03 1.50536 551.545 1.59203 551.207 1.76536C550.877 1.93869 550.713 2.19003 550.713 2.51936Z" fill="#D8F0FF"/>
<path d="M562.098 1.02436V10.1764C562.098 10.3757 561.925 10.4754 561.578 10.4754C561.232 10.4754 561.058 10.3757 561.058 10.1764V6.13336H557.119V10.1764C557.119 10.3757 556.946 10.4754 556.599 10.4754C556.253 10.4754 556.079 10.3757 556.079 10.1764V1.02436C556.079 0.825026 556.253 0.72536 556.599 0.72536C556.946 0.72536 557.119 0.825026 557.119 1.02436V5.22336H561.058V1.02436C561.058 0.825026 561.232 0.72536 561.578 0.72536C561.925 0.72536 562.098 0.825026 562.098 1.02436Z" fill="#D8F0FF"/>
<path d="M563.653 10.4754C563.307 10.4754 563.133 10.3757 563.133 10.1764V1.02436C563.133 0.825026 563.307 0.72536 563.653 0.72536C564 0.72536 564.173 0.825026 564.173 1.02436V10.1764C564.173 10.3757 564 10.4754 563.653 10.4754Z" fill="#D8F0FF"/>
<path d="M568.818 9.22736L567.128 2.40236C567.076 2.18569 567.024 2.02969 566.972 1.93436C566.929 1.83036 566.855 1.76536 566.751 1.73936C566.647 1.71336 566.483 1.70036 566.257 1.70036V10.1764C566.257 10.3757 566.084 10.4754 565.737 10.4754C565.391 10.4754 565.217 10.3757 565.217 10.1764V1.72636C565.217 1.34503 565.269 1.09369 565.373 0.97236C565.477 0.851027 565.685 0.79036 565.997 0.79036H566.283C566.699 0.79036 567.016 0.820694 567.232 0.88136C567.449 0.93336 567.614 1.05036 567.726 1.23236C567.839 1.40569 567.939 1.67436 568.025 2.03836L569.715 8.86336C569.767 9.07136 569.815 9.22736 569.858 9.33136C569.91 9.42669 569.988 9.49169 570.092 9.52636C570.205 9.55236 570.37 9.56536 570.586 9.56536V1.08936C570.586 0.890027 570.76 0.79036 571.106 0.79036C571.453 0.79036 571.626 0.890027 571.626 1.08936V9.50036C571.626 9.89903 571.574 10.1634 571.47 10.2934C571.375 10.4147 571.167 10.4754 570.846 10.4754H570.56C570.153 10.4754 569.837 10.4494 569.611 10.3974C569.395 10.3367 569.23 10.2154 569.117 10.0334C569.013 9.85136 568.914 9.58269 568.818 9.22736Z" fill="#D8F0FF"/>
<path d="M575.421 0.59536C576.253 0.59536 576.89 0.773026 577.332 1.12836C577.783 1.48369 578.008 1.99069 578.008 2.64936V2.84436C578.008 3.04369 577.835 3.14336 577.488 3.14336C577.141 3.14336 576.968 3.04369 576.968 2.84436V2.51936C576.968 1.84336 576.431 1.50536 575.356 1.50536C574.775 1.50536 574.333 1.59203 574.03 1.76536C573.727 1.93869 573.575 2.19003 573.575 2.51936V3.85836C573.575 4.62103 574.043 5.00236 574.979 5.00236H575.954C576.127 5.00236 576.214 5.15403 576.214 5.45736C576.214 5.76069 576.127 5.91236 575.954 5.91236H574.849C573.913 5.91236 573.445 6.29369 573.445 7.05636V8.68136C573.445 9.01069 573.605 9.26203 573.926 9.43536C574.255 9.60869 574.723 9.69536 575.33 9.69536C576.526 9.69536 577.124 9.35736 577.124 8.68136V7.74536C577.124 7.54603 577.297 7.44636 577.644 7.44636C577.991 7.44636 578.164 7.54603 578.164 7.74536V8.55136C578.164 9.21869 577.917 9.73003 577.423 10.0854C576.938 10.432 576.231 10.6054 575.304 10.6054C574.368 10.6054 573.649 10.4277 573.146 10.0724C572.652 9.71703 572.405 9.21003 572.405 8.55136V7.05636C572.405 6.59703 572.496 6.23736 572.678 5.97736C572.869 5.71736 573.176 5.53969 573.601 5.44436C573.22 5.33169 572.947 5.14969 572.782 4.89836C572.617 4.63836 572.535 4.29169 572.535 3.85836V2.64936C572.535 1.98203 572.782 1.47503 573.276 1.12836C573.77 0.773026 574.485 0.59536 575.421 0.59536Z" fill="#D8F0FF"/>
</g>
</g>
</g>
</svg>
